<?xml version="1.0" encoding="utf-8"?>
<!-- Generator: Adobe Illustrator 16.0.0, SVG Export Plug-In . SVG Version: 6.00 Build 0)  -->
<!DOCTYPE svg PUBLIC "-//W3C//DTD SVG 1.1//EN" "http://www.w3.org/Graphics/SVG/1.1/DTD/svg11.dtd">
<svg version="1.1" id="Layer_1" xmlns="http://www.w3.org/2000/svg" xmlns:xlink="http://www.w3.org/1999/xlink" x="0px" y="0px"
	 width="653.244px" height="653.253px" viewBox="0 0 653.244 653.253" enable-background="new 0 0 653.244 653.253"
	 xml:space="preserve">
<rect x="-5286.034" y="-3365.189" fill-rule="evenodd" clip-rule="evenodd" fill="#FFFFFF" stroke="#9999FF" stroke-width="0.5669" stroke-miterlimit="22.9256" width="2702.716" height="1508.954"/>
<path fill-rule="evenodd" clip-rule="evenodd" fill="#1DA13C" d="M-3706.363-2542.145l-3.368-7.879
	c0.987,7.384-0.473,10.438-1.479,12.714c-5.3,11.994-16.731,10.329-34.59,7.259c-8.161-1.403-17.521-4.291-24.285-8.666
	c-4.713-3.047-9.266-6.766-13.281-19.164l-0.08,19.17l0.019,39.202c1.156-3.411,3.941-7.736,5.411-9.943
	c1.892-2.842,4.094-5.694,7.355-8.04c6.022-4.333,15.532-6.958,26.39-5.087c12.415,2.139,24.607,8.675,30.313,14.395
	c5.063,5.076,2.16,8.339,0.715,13.547l12.559-7.905L-3706.363-2542.145z"/>
<path fill-rule="evenodd" clip-rule="evenodd" fill="#1DA13C" d="M-3764.511-2646.903c7.83,18.824,4.641,29.679-17.074,33.631
	c-6.157,1.121-14.04-0.193-21.756-2.844c-8.998-3.091-17.771-8-23.318-12.98l2.783,17.042l35.592,40.523
	c-5.568-17.683-4.856-29.419,10.795-35.093c9.229-3.346,19.155-3.82,28.382-2.009c8.166,1.603,16.397,6.803,20.741,12.015
	l-7.004-31.538L-3764.511-2646.903z"/>
<path fill-rule="evenodd" clip-rule="evenodd" fill="#1DA13C" d="M-3846.202-2722.956l-13.864-6.141
	c15.189,14.881,18.896,26.118,3.768,41.479c-3.438,3.49-17.983,12.813-32.264,6.474l1.18,23.44l41.5,9.592
	c-9.693-11.139-11.382-29.121-4.051-36.56c12.687-12.873,34.342-13.139,38.169-8.525l1.319-11.817L-3846.202-2722.956z"/>
<path fill-rule="evenodd" clip-rule="evenodd" fill="#1DA13C" d="M-3905.445-2813.688c1.298,0.648,13.382,5.29,14.671,5.943
	c282.851,143.5,332.186,397.308,29.047,389.878c302.16-39.339,94.603-279.986-57.64-342.869c-1.173-0.484-13.133-4.948-14.3-5.411
	l2.155-38.11L-3905.445-2813.688z"/>
<path fill-rule="evenodd" clip-rule="evenodd" fill="#096898" d="M-3818.297-2536.41c-1.211,0.8-11.272,8.945-12.482,9.734
	c-265.7,173.206-510.172,89.027-352.168-169.784c-117.011,281.348,195.174,221.922,325.753,121.517
	c1.006-0.774,10.852-8.9,11.836-9.679l39.768,10.828L-3818.297-2536.41z"/>
<path fill-rule="evenodd" clip-rule="evenodd" fill="#1DA13C" d="M-3949.733-2714.436c5.729,2.865,21.622,9.701,27.046,12.67
	c176.798,96.777,191.968,246.496,39.309,264.168c110.142-47.277,67.425-143.734-7.497-202.5
	c-12.436-9.754-26.536-19.519-41.115-27.09c-5.773-2.998-21.939-9.569-27.79-11.743L-3949.733-2714.436z"/>
<path fill-rule="evenodd" clip-rule="evenodd" fill="#EFA021" d="M-3966.379-2907.76l-5.14,6.856
	c5.903-4.547,9.276-4.81,11.751-5.076c13.037-1.407,17.311,9.325,23.582,26.326c2.865,7.769,5.044,17.319,4.637,25.364
	c-0.283,5.604-1.226,11.408-9.956,21.084l16.642-9.516l33.94-19.618c-3.532,0.705-8.67,0.455-11.316,0.286
	c-3.407-0.217-6.978-0.698-10.64-2.35c-6.764-3.049-13.792-9.973-17.601-20.312c-4.355-11.821-4.79-25.647-2.69-33.449
	c1.865-6.923,6.142-6.04,11.375-7.392l-13.125-6.923L-3966.379-2907.76z"/>
<path fill-rule="evenodd" clip-rule="evenodd" fill="#EFA021" d="M-4028.028-2805.022c12.387-16.193,23.382-18.858,37.664-2.029
	c4.049,4.772,6.852,12.256,8.414,20.264c1.822,9.338,1.958,19.39,0.418,26.685l13.366-10.932l17.299-51.086
	c-12.53,13.664-23.05,18.916-35.789,8.199c-7.512-6.32-12.886-14.678-15.931-23.576c-2.695-7.873-2.307-17.602,0.035-23.97
	l-23.811,21.834L-4028.028-2805.022z"/>
<path fill-rule="evenodd" clip-rule="evenodd" fill="#EFA021" d="M-4053.047-2696.25l1.614,15.077
	c5.294-20.595,13.171-29.424,34.038-24.003c4.741,1.232,20.087,9.168,21.739,24.705l19.709-12.742l-12.443-40.736
	c-4.8,13.964-19.529,24.418-29.636,21.788c-17.492-4.551-28.549-23.171-26.468-28.792l-10.894,4.766L-4053.047-2696.25z"/>
<path fill-rule="evenodd" clip-rule="evenodd" fill="#EFA021" d="M-4102.002-2599.577c-0.087-1.448-2.11-14.234-2.188-15.677
	c-17.151-316.706,177.986-486.335,323.12-220.095c-185.149-242.008-289.777,58.064-268.113,221.352
	c0.167,1.258,2.281,13.848,2.463,15.09l-29.568,24.756L-4102.002-2599.577z"/>
<path fill-rule="evenodd" clip-rule="evenodd" fill="#EFA021" d="M-3993.902-2610.849c-0.384-6.394-2.409-23.576-2.55-29.757
	c-4.588-201.5,117.488-289.497,209.122-166.127c-96.014-71.746-158.19,13.476-171.622,107.743
	c-2.229,15.646-3.635,32.739-2.903,49.151c0.29,6.499,2.682,23.784,3.725,29.938L-3993.902-2610.849z"/>
<path fill-rule="evenodd" clip-rule="evenodd" fill="#096898" d="M-4153.003-2499.771l8.508,1.023
	c-6.889-2.838-8.803-5.628-10.271-7.637c-7.736-10.587-0.579-19.655,11.009-33.586c5.295-6.365,12.477-13.027,19.647-16.698
	c4.996-2.558,10.493-4.642,23.238-1.92l-16.562-9.654l-33.959-19.584c2.376,2.707,4.729,7.281,5.906,9.658
	c1.515,3.059,2.884,6.391,3.285,10.389c0.741,7.382-1.741,16.93-8.79,25.398c-8.06,9.683-19.816,16.973-27.623,19.055
	c-6.928,1.848-8.301-2.299-12.089-6.154l0.567,14.829L-4153.003-2499.771z"/>
<path fill-rule="evenodd" clip-rule="evenodd" fill="#096898" d="M-4033.205-2497.75c-20.217-2.631-28.023-10.82-20.589-31.604
	c2.108-5.893,7.188-12.062,13.341-17.418c7.176-6.248,15.813-11.391,22.9-13.704l-16.15-6.111l-52.891,10.562
	c18.098,4.019,27.906,10.504,24.995,26.895c-1.717,9.666-6.269,18.499-12.452,25.584c-5.471,6.271-14.091,10.799-20.776,11.956
	l30.815,9.703L-4033.205-2497.75z"/>
<path fill-rule="evenodd" clip-rule="evenodd" fill="#096898" d="M-3926.495-2530.47l12.25-8.936
	c-20.483,5.712-32.067,3.305-37.806-17.477c-1.304-4.722-2.104-21.98,10.525-31.179l-20.889-10.698l-29.057,31.144
	c14.493-2.825,30.911,4.704,33.687,14.772c4.805,17.424-5.792,36.311-11.701,37.318l9.574,7.051L-3926.495-2530.47z"/>
<path fill-rule="evenodd" clip-rule="evenodd" fill="#096898" d="M-3882.109-2624.392c-25.173,18.172-42.79,28.99-71.047,41.849
	c-149.252,67.923-257.286,5.253-201.88-122.803c-14.127,119.024,90.765,130.259,179.119,94.758
	c14.665-5.893,30.171-13.222,44.018-22.063c5.483-3.5,19.257-14.214,24.065-18.195L-3882.109-2624.392z"/>
<path fill-rule="evenodd" clip-rule="evenodd" fill="#99CC33" d="M-4077.422-2347.787h0.012c0.127-0.003,0.254-0.006,0.382-0.006
	c5.33,0,9.905,3.233,11.871,7.845l0,0l33.263,65.25l32.85-64.472h0.001c1.765-5.022,6.548-8.623,12.173-8.623
	c7.125,0,12.9,5.775,12.9,12.9c0,1.867-0.397,3.642-1.111,5.244h0l-0.004,0.009c-0.181,0.404-0.381,0.799-0.601,1.181
	l-44.314,87.013c-1.944,4.661-6.544,7.937-11.91,7.937c-4.45,0-8.374-2.253-10.693-5.682l0,0c-0.585-0.865-1.067-1.804-1.43-2.801
	l-33.167-64.937l-33.352,65.488c-1.944,4.661-6.544,7.937-11.91,7.937c-4.45,0-8.374-2.253-10.693-5.681v-0.001
	c-0.585-0.865-1.067-1.804-1.431-2.801l-44.069-86.283c-0.296-0.495-0.56-1.01-0.789-1.545l-0.003-0.006l0,0
	c-0.665-1.555-1.033-3.268-1.033-5.066c0-7.125,5.776-12.9,12.9-12.9c5.33,0,9.905,3.233,11.871,7.845h0l33.262,65.25l32.85-64.473
	h0.001C-4087.831-2344.187-4083.047-2347.787-4077.422-2347.787L-4077.422-2347.787z M-3861.76-2280.8h-25.819
	c-7.124,0-12.9-5.776-12.9-12.9c0-7.124,5.776-12.899,12.9-12.899h20.269c16.874,0,28.61,6.78,30.83,22.928
	c0.075,0.474,0.132,0.942,0.167,1.403l0.007,0.09c0.109,1.114,0.175,2.272,0.198,3.471c0.186,4.616,0.101,9.255,0.148,13.873
	c0,32.005-32.315,31.252-57.034,31.062c-16.403-0.125-8.21-0.094-15.955-0.094c-48.929,0-60.057,1.434-58.407-49.54v-41.431
	c0-16.9,15.652-22.95,30.15-22.95h34.281c7.124,0,12.9,5.775,12.9,12.9c0,7.124-5.775,12.9-12.9,12.9h-38.631v62.703h79.797v-11.316
	V-2280.8L-3861.76-2280.8z M-3815.422-2347.787c7.124,0,12.9,5.775,12.9,12.9v75.603l89.31-0.02c7.124,0,12.9,5.775,12.9,12.9
	s-5.776,12.9-12.9,12.9c-34.07-0.26-68.14-0.217-102.21-0.217c-0.384,0-0.764-0.018-1.14-0.051c-6.664-0.62-11.76-6.14-11.76-12.85
	v-88.266C-3828.322-2342.012-3822.547-2347.787-3815.422-2347.787z"/>
<rect x="-5200.86" y="-1987.755" fill-rule="evenodd" clip-rule="evenodd" fill="#FFFFFF" stroke="#9999FF" stroke-width="0.5669" stroke-miterlimit="22.9256" width="2702.716" height="1508.954"/>
<rect x="119.398" y="-1856.236" fill-rule="evenodd" clip-rule="evenodd" fill="#FFFFFF" stroke="#9999FF" stroke-width="0.5669" stroke-miterlimit="22.9256" width="2702.716" height="1508.954"/>
<rect x="-2583.317" y="-3365.189" fill-rule="evenodd" clip-rule="evenodd" fill="#FFFFFF" stroke="#9999FF" stroke-width="0.5669" stroke-miterlimit="22.9256" width="2702.716" height="1508.954"/>
<path fill-rule="evenodd" clip-rule="evenodd" fill="#096898" stroke="#FFFFFF" stroke-width="2.8346" stroke-miterlimit="22.9256" d="
	M-1095.689-2530.037l4.21-24.58l-20.69-23.562c-47.096,28.294-132.157,56.937-190.855,54.751
	c-86.166-3.208-149.136-61.89-145.817-152.915c-10.892,47.725-8.633,84.727,1.234,114.12
	C-1405.268-2436.109-1202.961-2464.176-1095.689-2530.037z"/>
<path fill-rule="evenodd" clip-rule="evenodd" fill="#096898" stroke="#FFFFFF" stroke-width="2.8346" stroke-miterlimit="22.9256" d="
	M-1157.077-2619.206l-32.027-31.868c-103.144,94.57-356.864,297.88-286.715-13.858c-54.915,107.846-36.531,197.416,3.854,214.657
	C-1393.995-2416.989-1210.796-2547.646-1157.077-2619.206z"/>
<path fill-rule="evenodd" clip-rule="evenodd" fill="#096898" d="M-1236.406-2544.95c6.832-4.487,12.848-7.201,16.415-7.335
	c5.905-0.222,12.025,7.465,11.047,11.006c-0.938,3.399-7.785,6.271-17.963,10.093l30.955-2.533l21.338-13.658
	c-15.17,4.906-19.739,2.729-26.147-4.856c-5.562-6.583-9.157-14.744,4.782-27.052l-35.697,3.667L-1236.406-2544.95z"/>
<path fill-rule="evenodd" clip-rule="evenodd" fill="#096898" d="M-1415.228-2514.25c-20.944-22.012-58.058-0.355-40.452,15.461
	l-25.318-11.275l-4.009-27.002c3.951,11.053,16.949,11.549,23.707,9.693c5.191-1.425,9.285-3.042,12.565-4.934
	c9.969-5.747,8.774-14.958,5.64-23.113l19.52,4.188L-1415.228-2514.25z"/>
<path fill-rule="evenodd" clip-rule="evenodd" fill="#096898" d="M-1444.813-2558.592c-5.465-11.549-16.534-13.556-26.188-11.853
	c-9.431,1.662-17.304,6.257-17.047,17.657l-8.066-13.128l7.159-22.345c0.572,4.21,2.809,7.451,6.761,9.14
	c4.525,1.934,8.475,1.268,15.062-1.481c10.207-4.26,12.881-14.914,12.886-25.2l13.057,13.757L-1444.813-2558.592z"/>
<path fill-rule="evenodd" clip-rule="evenodd" fill="#096898" d="M-1194.27-2580.955c12.868-9.018,20.752-4.373,27.372,2.066
	c8.078,7.86,15.63,21.996-0.346,28.797l24.552-7.214l30.271-18.888c-15.078,5.914-36.518-0.358-42.926-7.942
	c-5.562-6.583-16.226-21.765-3.523-34.825l-25.543,13.53L-1194.27-2580.955z"/>
<path fill-rule="evenodd" clip-rule="evenodd" fill="#EFA021" stroke="#FFFFFF" stroke-width="2.8346" stroke-miterlimit="22.9256" d="
	M-1394.737-2579.178l19.182,15.937l30.75-6.138c-0.956-54.934,16.77-142.919,48.012-192.66
	c45.861-73.018,128.166-98.211,205.336-49.824c-35.885-33.295-69.059-49.84-99.447-55.99
	C-1321.292-2894.244-1398.138-2705.009-1394.737-2579.178z"/>
<path fill-rule="evenodd" clip-rule="evenodd" fill="#EFA021" stroke="#FFFFFF" stroke-width="2.8346" stroke-miterlimit="22.9256" d="
	M-1286.82-2587.757l43.613-11.803c-30.329-136.609-79.541-457.993,155.358-241.373c-65.94-101.48-152.702-130.345-187.825-103.991
	C-1343.486-2894.042-1321.933-2670.058-1286.82-2587.757z"/>
<path fill-rule="evenodd" clip-rule="evenodd" fill="#EFA021" d="M-1311.463-2693.586c0.471,8.161-0.187,14.728-1.855,17.884
	c-2.76,5.224-12.477,6.682-15.055,4.064c-2.475-2.513-1.539-9.878,0.241-20.604l-13.284,28.075l1.159,25.308
	c3.337-15.591,7.506-18.458,17.28-20.215c8.481-1.525,17.347-0.558,21.036,17.667l14.674-32.748L-1311.463-2693.586z"/>
<path fill-rule="evenodd" clip-rule="evenodd" fill="#EFA021" d="M-1248.639-2863.799c29.535-7.133,29.337-50.102,6.836-42.763
	l22.424-16.289l25.39,10.029c-11.547-2.104-18.476,8.904-20.248,15.685c-1.361,5.208-2.008,9.563-2.01,13.35
	c-0.007,11.506,8.567,15.077,17.197,16.44l-13.387,14.811L-1248.639-2863.799z"/>
<path fill-rule="evenodd" clip-rule="evenodd" fill="#EFA021" d="M-1195.445-2867.25c12.734,1.042,20.007-7.541,23.359-16.753
	c3.275-8.999,3.233-18.113-6.768-23.592l15.402-0.422l15.772,17.373c-3.933-1.609-7.857-1.293-11.296,1.285
	c-3.938,2.952-5.335,6.706-6.249,13.785c-1.415,10.97,6.475,18.613,15.381,23.76l-18.442,4.429L-1195.445-2867.25z"/>
<path fill-rule="evenodd" clip-rule="evenodd" fill="#EFA021" d="M-1301.35-2639.092c1.375,15.653-6.588,20.158-15.476,22.671
	c-10.846,3.066-26.864,2.538-24.766-14.698l-6.028,24.87l1.221,35.659c2.417-16.015,18.569-31.446,28.342-33.204
	c8.482-1.525,26.962-3.169,31.92,14.362l1.055-28.887L-1301.35-2639.092z"/>
<path fill-rule="evenodd" clip-rule="evenodd" fill="#1DA13C" stroke="#FFFFFF" stroke-width="2.8346" stroke-miterlimit="22.9256" d="
	M-1202.656-2813.59l-23.392,8.644l-10.06,29.699c48.052,26.639,115.386,85.982,142.843,137.909
	c40.305,76.227,20.97,160.101-59.52,202.739c46.777-14.43,77.692-34.887,98.213-58.129
	C-966.523-2592.452-1091.982-2753.62-1202.656-2813.59z"/>
<path fill-rule="evenodd" clip-rule="evenodd" fill="#1DA13C" stroke="#FFFFFF" stroke-width="2.8346" stroke-miterlimit="22.9256" d="
	M-1249.185-2715.842l-11.585,43.671c133.472,42.039,436.404,160.112,131.356,255.231c120.855-6.366,189.233-67.072,183.971-110.666
	C-955.601-2611.773-1160.353-2705.1-1249.185-2715.842z"/>
<path fill-rule="evenodd" clip-rule="evenodd" fill="#1DA13C" d="M-1145.212-2684.27c-7.302-3.672-12.661-7.525-14.561-10.548
	c-3.145-5.003,0.452-14.146,4.008-15.07c3.414-0.886,9.324,3.607,17.723,10.511l-17.671-25.542l-22.497-11.65
	c11.833,10.685,12.232,15.73,8.867,25.073c-2.92,8.108-8.19,15.302-25.818,9.384l21.023,29.082L-1145.212-2684.27z"/>
<path fill-rule="evenodd" clip-rule="evenodd" fill="#1DA13C" d="M-1029.215-2544.755c-8.59,29.145,28.721,50.458,33.616,27.302
	l2.895,27.564l-21.38,16.974c7.597-8.948,1.527-20.453-3.459-25.378c-3.83-3.783-7.277-6.52-10.556-8.416
	c-9.961-5.759-17.34-0.12-22.836,6.672l-6.133-18.999L-1029.215-2544.755z"/>
<path fill-rule="evenodd" clip-rule="evenodd" fill="#1DA13C" d="M-1052.824-2496.962c-7.27,10.507-3.473,21.097,2.829,28.606
	c6.155,7.336,14.071,11.856,23.815,5.935l-7.336,13.549l-22.932,4.973c3.36-2.601,5.048-6.158,4.535-10.426
	c-0.588-4.886-3.14-7.973-8.814-12.303c-8.792-6.71-19.356-3.699-28.267,1.44l5.385-18.186L-1052.824-2496.962z"/>
<path fill-rule="evenodd" clip-rule="evenodd" fill="#1DA13C" d="M-1197.462-2702.758c-14.243-6.636-14.164-15.785-11.896-24.738
	c2.768-10.926,11.234-24.533,25.111-14.099l-18.524-17.655l-31.492-16.772c12.66,10.101,17.948,31.804,14.584,41.146
	c-2.92,8.108-10.737,24.935-28.398,20.463l24.489,15.357L-1197.462-2702.758z"/>
<rect x="2822.115" y="-1856.236" fill-rule="evenodd" clip-rule="evenodd" fill="#FFFFFF" stroke="#9999FF" stroke-width="0.5669" stroke-miterlimit="22.9256" width="2702.716" height="1508.954"/>
<path fill-rule="evenodd" clip-rule="evenodd" fill="#E6E6E6" d="M3107.43-1389.313c108.394,0,196.8-88.407,196.8-196.8
	c0-108.394-88.406-196.8-196.8-196.8s-196.801,88.407-196.801,196.8C2910.629-1477.721,2999.036-1389.313,3107.43-1389.313z"/>
<text transform="matrix(1 0 0 1 3035.6211 -1476.4707)" fill="#FFFFFF" font-family="'ModernoTwo'" font-size="318.7715">6</text>
<path fill-rule="evenodd" clip-rule="evenodd" fill="#1DA13C" stroke="#FFFFFF" stroke-width="2.8346" stroke-miterlimit="22.9256" d="
	M1592.375-1324.815l-24.504,4.631l-14.861,27.611c42.95,34.263,99.473,103.982,117.907,159.754
	c26.361,79.754,17.23-26.738,58.115,41.342C1723.931-1175.444,1658.657-1272.977,1592.375-1324.815z"/>
<path fill-rule="evenodd" clip-rule="evenodd" fill="#EFA021" stroke="#FFFFFF" stroke-width="2.8346" stroke-miterlimit="22.9256" d="
	M1301.874-1101.116l16.263,18.906l31.343-0.937c8.197-54.327,40.314-138.137,79.396-181.986
	c57.371-64.37,142.72-75.519,210.764-14.967c-29.845-38.801-59.804-60.635-88.745-71.756
	C1426.715-1399.571,1319.455-1225.759,1301.874-1101.116z"/>
<path fill-rule="evenodd" clip-rule="evenodd" fill="#EFA021" stroke="#FFFFFF" stroke-width="2.8346" stroke-miterlimit="22.9256" d="
	M1409.713-1091.62l44.97-4.382c-7.178-139.752-2.232-464.844,193.352-212.161c-48.138-111.037-128.888-153.935-167.905-133.791
	C1404.796-1403.064,1388.783-1178.617,1409.713-1091.62z"/>
<path fill-rule="evenodd" clip-rule="evenodd" fill="#EFA021" d="M1403.021-1200.074c-0.894,8.125-2.635,14.49-4.805,17.326
	c-3.591,4.692-13.415,4.513-15.521,1.502c-2.022-2.89,0.127-9.996,3.666-20.276l-17.771,25.473l-3.067,25.148
	c5.884-14.818,10.473-16.952,20.402-17.059c8.617-0.093,17.198,2.336,17.803,20.92l19.918-29.85L1403.021-1200.074z"/>
<path fill-rule="evenodd" clip-rule="evenodd" fill="#EFA021" d="M1493.29-1357.463c30.31-2.119,37.264-44.522,13.855-41.03
	l24.821-12.33l23.367,14.113c-11.036-3.997-19.7,5.705-22.575,12.097c-2.209,4.909-3.571,9.095-4.203,12.829
	c-1.922,11.344,5.938,16.292,14.222,19.072l-15.665,12.377L1493.29-1357.463z"/>
<path fill-rule="evenodd" clip-rule="evenodd" fill="#EFA021" d="M1546.316-1352.016c12.383,3.147,20.982-4.107,25.821-12.633
	c4.727-8.328,6.201-17.323-2.749-24.39l15.258,2.147l12.661,19.755c-3.609-2.241-7.532-2.582-11.352-0.612
	c-4.375,2.256-6.377,5.725-8.455,12.553c-3.221,10.581,3.288,19.431,11.213,25.987l-18.922,1.3L1546.316-1352.016z"/>
<path fill-rule="evenodd" clip-rule="evenodd" fill="#EFA021" d="M1403.927-1144.657c-1.248,15.663-9.851,18.781-19.032,19.78
	c-11.204,1.218-26.911-1.967-21.975-18.613l-10.082,23.521l-4.729,35.364c5.048-15.39,23.542-27.918,33.471-28.025
	c8.617-0.093,27.113,1.361,29.086,19.473l5.847-28.309L1403.927-1144.657z"/>
<path fill-rule="evenodd" clip-rule="evenodd" fill="#096898" stroke="#FFFFFF" stroke-width="2.8346" stroke-miterlimit="22.9256" d="
	M1641.134-961.759l8.241-23.536l-16.482-26.676c-51.147,20.064-139.787,34.154-197.304,22.233
	c-84.432-17.5-136.761-85.84-118.343-175.044c-18.681,45.247-22.609,82.109-17.77,112.734
	C1320.242-920.646,1524.398-914.663,1641.134-961.759z"/>
<path fill-rule="evenodd" clip-rule="evenodd" fill="#096898" stroke="#FFFFFF" stroke-width="2.8346" stroke-miterlimit="22.9256" d="
	M1595.437-1059.898l-26.279-36.753c-117.439,76.092-401.45,234.355-280.412-61.367c-72.093,97.207-68.867,188.587-31.914,212.306
	C1328.177-899.917,1530.561-998.273,1595.437-1059.898z"/>
<path fill-rule="evenodd" clip-rule="evenodd" fill="#096898" d="M1504.858-999.876c7.483-3.288,13.867-4.963,17.407-4.502
	c5.859,0.764,10.615,9.361,9.062,12.69c-1.491,3.196-8.72,4.889-19.393,6.964l30.945,2.653l23.313-9.918
	c-15.774,2.313-19.917-0.594-24.975-9.139c-4.389-7.417-6.576-16.063,9.217-25.879l-35.81-2.324L1504.858-999.876z"/>
<path fill-rule="evenodd" clip-rule="evenodd" fill="#096898" d="M1323.422-999.356c-16.991-25.189-57.189-10.01-42.46,8.516
	l-23.09-15.33l0.539-27.294c2.057,11.557,14.791,14.208,21.764,13.503c5.355-0.542,9.662-1.455,13.212-2.774
	c10.785-4.008,11.14-13.29,9.406-21.853l18.551,7.377L1323.422-999.356z"/>
<path fill-rule="evenodd" clip-rule="evenodd" fill="#096898" d="M1301.627-1048.002c-3.467-12.298-14.049-16.118-23.852-16.046
	c-9.576,0.071-18.103,3.291-19.747,14.575l-5.77-14.287l10.777-20.843c-0.136,4.247,1.53,7.814,5.146,10.138
	c4.141,2.66,8.146,2.66,15.098,1.046c10.774-2.502,15.184-12.563,16.899-22.705l10.587,15.737L1301.627-1048.002z"/>
<path fill-rule="evenodd" clip-rule="evenodd" fill="#096898" d="M1552.398-1028.368c14.189-6.751,21.19-0.86,26.646,6.592
	c6.657,9.095,11.752,24.29-5.132,28.338l25.41-3.029l32.99-13.587c-15.852,3.322-35.949-6.43-41.006-14.974
	c-4.389-7.417-12.378-24.162,2.321-34.926l-27.439,9.091L1552.398-1028.368z"/>
<path fill-rule="evenodd" clip-rule="evenodd" fill="#1DA13C" stroke="#FFFFFF" stroke-width="2.8346" stroke-miterlimit="22.9256" d="
	M1670.917-1132.819c2.178,6.589,3.967,13.162,5.369,19.695c16.03,74.639-18.287,143.969-97.79,170.314
	c48.525-6.446,82.413-21.475,106.516-40.979c32.604-26.384,45.297-62.323,44.285-101.598
	C1670.917-1132.819,1729.032-1091.478,1670.917-1132.819z"/>
<path fill-rule="evenodd" clip-rule="evenodd" fill="#1DA13C" stroke="#FFFFFF" stroke-width="2.8346" stroke-miterlimit="22.9256" d="
	M1530.231-1236.171l-18.689,41.134c124.617,63.661,403.683,230.489,87.061,273.528c120.229,13.831,197.755-34.652,199.82-78.514
	C1802.409-1084.708,1616.038-1210.8,1530.231-1236.171z"/>
<path fill-rule="evenodd" clip-rule="evenodd" fill="#1DA13C" d="M1579.056-1214.664c-12.94-8.913-11.339-17.922-7.613-26.373
	c4.547-10.313,15.159-22.322,27.107-9.724l-15.328-20.491l-28.263-21.778c10.804,12.067,12.406,34.348,7.535,43
	c-4.229,7.509-14.735,22.8-31.407,15.453l21.593,19.217L1579.056-1214.664z"/>
<path fill-rule="evenodd" clip-rule="evenodd" fill="#1DA13C" d="M1627.502-1187.74c-6.59-4.836-11.232-9.526-12.603-12.823
	c-2.269-5.457,2.799-13.874,6.459-14.193c3.514-0.307,8.594,5.107,15.728,13.313l-13.175-28.125l-20.245-15.231
	c9.891,12.505,9.444,17.546,4.572,26.198c-4.229,7.51-10.622,13.727-27.02,4.958l15.892,32.174L1627.502-1187.74z"/>
<path fill-rule="evenodd" clip-rule="evenodd" fill="#1DA13C" d="M1687.439-987.673c-8.917,9.151-6.935,20.226-1.971,28.679
	c4.85,8.258,11.902,14.032,22.496,9.814l-9.487,12.14l-23.439,1.088c3.746-2.006,6.002-5.231,6.206-9.525
	c0.233-4.916-1.77-8.385-6.644-13.599c-7.554-8.079-18.471-6.867-28.112-3.282l8.335-17.037L1687.439-987.673z"/>
<path fill-rule="evenodd" clip-rule="evenodd" fill="#1DA13C" d="M1718.671-1030.871c-13.32,27.31,19.925,54.533,28.604,32.515
	l-1.731,27.661l-23.906,13.18c8.979-7.559,4.909-19.913,0.812-25.599c-3.146-4.368-6.091-7.641-9.008-10.055
	c-8.864-7.337-17.08-3.003-23.629,2.779l-2.887-19.754L1718.671-1030.871z"/>
<path fill-rule="evenodd" clip-rule="evenodd" fill="#1DA13C" stroke="#FFFFFF" stroke-width="2.8346" stroke-miterlimit="22.9256" d="
	M4225.474-1310.143l-13.658,3.258l-33.038,21.613c17.917-0.66,39.714,26.66,56.243,39.68c4.792,3.773,9.721,8.083,14.841,13.213
	c29.6,29.652,61.535,75.961,73.747,107.774c20.561,53.555,30.717,42.766,60.951,52.542c-1.396-56.208-32.785-118.894-74.412-170.063
	C4287.435-1270.042,4251.073-1292.005,4225.474-1310.143z"/>
<path fill-rule="evenodd" clip-rule="evenodd" fill="#EFA021" stroke="#FFFFFF" stroke-width="2.8346" stroke-miterlimit="22.9256" d="
	M3978.985-1051.447l17.139,18.115l31.264-2.418c5.617-54.654,33.734-139.89,70.699-185.539
	c54.262-67.012,138.986-82.186,209.819-24.92c-31.647-37.347-62.605-57.738-92.04-67.478
	C4089.567-1355.475,3990.65-1176.783,3978.985-1051.447z"/>
<path fill-rule="evenodd" clip-rule="evenodd" fill="#EFA021" stroke="#FFFFFF" stroke-width="2.8346" stroke-miterlimit="22.9256" d="
	M4087.153-1047.064l44.711-6.504c-13.78-139.256-24.22-464.218,183.099-221.07c-53.336-108.635-136.024-147.665-174.046-125.698
	C4067.509-1357.927,4062.132-1132.973,4087.153-1047.064z"/>
<path fill-rule="evenodd" clip-rule="evenodd" fill="#EFA021" d="M4075.339-1155.08c-0.508,8.158-1.947,14.599-3.98,17.534
	c-3.365,4.857-13.186,5.142-15.434,2.234c-2.156-2.79-0.346-9.99,2.703-20.428l-16.545,26.286l-1.875,25.265
	c5.178-15.08,9.66-17.429,19.572-18.005c8.604-0.5,17.289,1.52,18.773,20.056l18.483-30.76L4075.339-1155.08z"/>
<path fill-rule="evenodd" clip-rule="evenodd" fill="#EFA021" d="M4158.06-1316.563c30.176-3.551,35.115-46.234,11.9-41.639
	l24.209-13.491l24.01,12.992c-11.213-3.471-19.408,6.631-21.979,13.151c-1.974,5.008-3.137,9.254-3.592,13.014
	c-1.383,11.422,6.703,15.993,15.108,18.378l-15.062,13.104L4158.06-1316.563z"/>
<path fill-rule="evenodd" clip-rule="evenodd" fill="#EFA021" d="M4211.284-1313.63c12.52,2.558,20.766-5.096,25.195-13.84
	c4.328-8.543,5.375-17.598-3.899-24.232l15.343,1.423l13.582,19.134c-3.713-2.068-7.646-2.224-11.369-0.074
	c-4.264,2.46-6.1,6.02-7.852,12.938c-2.717,10.722,4.203,19.253,12.43,25.428l-18.84,2.193L4211.284-1313.63z"/>
<path fill-rule="evenodd" clip-rule="evenodd" fill="#EFA021" d="M4078.864-1099.768c-0.506,15.705-8.951,19.226-18.076,20.658
	c-11.133,1.747-26.973-0.691-22.83-17.553l-8.958,23.971l-3.05,35.549c4.314-15.611,22.195-29.001,32.107-29.578
	c8.604-0.5,27.146,0.077,29.975,18.075l4.5-28.553L4078.864-1099.768z"/>
<path fill-rule="evenodd" clip-rule="evenodd" fill="#096898" stroke="#FFFFFF" stroke-width="2.8346" stroke-miterlimit="22.9256" d="
	M4329.983-971.398l10.719-11.751l-8.5-29.659c-7.947,3.561-26.069,10.81-35.643,14.065
	c-50.829,17.289-120.794,29.001-169.614,21.271c-85.164-13.485-140.668-79.274-126.491-169.249
	c-16.52,46.08-18.699,83.087-12.416,113.448c22.512,108.781,168.619,124.159,282.808,95.666
	C4293.403-943.236,4311.116-962.728,4329.983-971.398z"/>
<path fill-rule="evenodd" clip-rule="evenodd" fill="#096898" stroke="#FFFFFF" stroke-width="2.8346" stroke-miterlimit="22.9256" d="
	M4283.295-1055.117l-27.987-35.469c-113.709,81.563-389.916,253.084-283.002-48.033c-67.414,100.509-59.869,191.634-21.836,213.578
	C4023.903-882.672,4221.407-990.492,4283.295-1055.117z"/>
<path fill-rule="evenodd" clip-rule="evenodd" fill="#096898" d="M4195.659-990.876c7.318-3.64,13.615-5.615,17.174-5.321
	c5.889,0.485,11.047,8.849,9.652,12.248c-1.339,3.263-8.48,5.296-19.042,7.874l31.036,1.185l22.817-11.009
	c-15.647,3.058-19.923,0.35-25.379-7.947c-4.735-7.201-7.329-15.733,7.981-26.285l-35.879-0.628L4195.659-990.876z"/>
<path fill-rule="evenodd" clip-rule="evenodd" fill="#096898" d="M4014.45-981.774c-18.164-24.357-57.6-7.293-42.012,10.515
	l-23.788-14.221l-0.753-27.288c2.602,11.445,15.446,13.492,22.377,12.457c5.326-0.794,9.584-1.91,13.066-3.396
	c10.584-4.515,10.5-13.802,8.363-22.273l18.879,6.491L4014.45-981.774z"/>
<path fill-rule="evenodd" clip-rule="evenodd" fill="#096898" d="M3990.377-1029.335c-4.044-12.119-14.794-15.435-24.583-14.898
	c-9.563,0.523-17.928,4.144-19.037,15.492l-6.438-13.998l9.779-21.329c0.064,4.249,1.897,7.733,5.619,9.883
	c4.263,2.461,8.264,2.271,15.132,0.33c10.644-3.009,14.571-13.267,15.806-23.479l11.318,15.219L3990.377-1029.335z"/>
<path fill-rule="evenodd" clip-rule="evenodd" fill="#096898" d="M4241.798-1021.587c13.854-7.414,21.125-1.86,26.928,5.325
	c7.08,8.769,12.888,23.706-3.785,28.549l25.238-4.228l32.311-15.134c-15.677,4.069-36.213-4.721-41.668-13.017
	c-4.736-7.201-13.508-23.549,0.665-34.996l-26.978,10.379L4241.798-1021.587z"/>
<path fill-rule="evenodd" clip-rule="evenodd" fill="#1DA13C" stroke="#FFFFFF" stroke-width="2.8346" stroke-miterlimit="22.9256" d="
	M4323.608-1124.604c30.904,80.498,1.682,161.459-83.327,194.169c48.167-8.734,81.306-25.349,104.458-45.971
	c29.197-26.008,40.717-59.491,39.82-95.656C4384.261-1084.078,4384.56-1072.063,4323.608-1124.604z"/>
<path fill-rule="evenodd" clip-rule="evenodd" fill="#1DA13C" stroke="#FFFFFF" stroke-width="2.8346" stroke-miterlimit="22.9256" d="
	M4178.192-1221.186l-16.723,41.974c127.49,57.693,414.135,211.134,99.904,269.104c120.748,8.126,195.893-43.97,195.881-87.88
	C4457.231-1082.768,4265.104-1199.901,4178.192-1221.186z"/>
<path fill-rule="evenodd" clip-rule="evenodd" fill="#1DA13C" d="M4277.646-1177.409c-6.811-4.52-11.67-8.985-13.195-12.213
	c-2.523-5.344,2.139-13.992,5.781-14.483c3.495-0.473,8.825,4.695,16.34,12.554l-14.492-27.471l-20.943-14.256
	c10.473,12.022,10.266,17.079,5.808,25.952c-3.868,7.701-9.961,14.213-26.755,6.23l17.396,31.386L4277.646-1177.409z"/>
<path fill-rule="evenodd" clip-rule="evenodd" fill="#1DA13C" d="M4376.133-1025.029c-12.013,27.909,22.483,53.529,30.11,31.125
	l-0.422,27.712l-23.255,14.296c8.611-7.975,3.961-20.123-0.4-25.608c-3.351-4.214-6.446-7.344-9.474-9.617
	c-9.201-6.909-17.203-2.191-23.471,3.895l-3.818-19.596L4376.133-1025.029z"/>
<path fill-rule="evenodd" clip-rule="evenodd" fill="#1DA13C" d="M4346.98-980.401c-8.474,9.563-5.97,20.53-0.612,28.739
	c5.234,8.019,12.553,13.453,22.936,8.739l-8.902,12.575l-23.362,2.195c3.647-2.181,5.749-5.511,5.749-9.809
	c0-4.921-2.164-8.291-7.279-13.269c-7.928-7.713-18.775-5.986-28.236-1.949l7.52-17.412L4346.98-980.401z"/>
<path fill-rule="evenodd" clip-rule="evenodd" fill="#1DA13C" d="M4227.98-1202.012c-13.349-8.291-12.175-17.365-8.854-25.982
	c4.055-10.517,14.087-23.016,26.617-10.996l-16.28-19.743l-29.262-20.416c11.363,11.542,14.018,33.722,9.562,42.594
	c-3.868,7.701-13.641,23.473-30.641,16.922l22.478,18.174L4227.98-1202.012z"/>
<path fill-rule="evenodd" clip-rule="evenodd" fill="#2492FF" stroke="#FFFFFF" stroke-width="2.8346" stroke-miterlimit="22.9256" d="
	M-1072.596-1043.394l5.717-24.274l-19.2-24.792c-48.75,25.34-135.414,48.687-193.865,42.889
	c-85.805-8.51-145.04-70.959-136.12-161.607c-13.811,46.964-13.836,84.035-5.798,113.979
	C-1387.372-968.717-1183.722-984.267-1072.596-1043.394z"/>
<path fill-rule="evenodd" clip-rule="evenodd" fill="#2492FF" stroke="#FFFFFF" stroke-width="2.8346" stroke-miterlimit="22.9256" d="
	M-1128.374-1136.176l-30.003-33.781c-108.773,88.037-374.537,275.33-285.316-31.495c-61.454,104.259-48.624,194.791-9.378,214.486
	C-1377.299-948.938-1186.399-1068.062-1128.374-1136.176z"/>
<path fill-rule="evenodd" clip-rule="evenodd" fill="#2492FF" d="M-1212.127-1066.948c7.095-4.058,13.267-6.396,16.836-6.31
	c5.908,0.142,11.542,8.191,10.348,11.665c-1.146,3.336-8.157,5.78-18.552,8.968l31.053-0.621l22.139-12.317
	c-15.444,3.962-19.869,1.508-25.798-6.458c-5.146-6.913-8.231-15.28,6.439-26.705l-35.855,1.46L-1212.127-1066.948z"/>
<path fill-rule="evenodd" clip-rule="evenodd" fill="#2492FF" d="M-1392.5-1047.323c-19.549-23.261-57.926-3.932-41.328,12.939
	l-24.576-12.813l-2.338-27.198c3.262,11.275,16.205,12.571,23.065,11.135c5.269-1.103,9.455-2.464,12.846-4.149
	c10.303-5.122,9.678-14.39,7.053-22.723l19.225,5.383L-1392.5-1047.323z"/>
<path fill-rule="evenodd" clip-rule="evenodd" fill="#2492FF" d="M-1419.297-1093.403c-4.742-11.864-15.667-14.549-25.408-13.444
	c-9.515,1.078-17.656,5.179-18.103,16.573l-7.242-13.6l8.523-21.862c0.312,4.238,2.344,7.61,6.185,9.54
	c4.397,2.209,8.38,1.787,15.125-0.551c10.45-3.622,13.776-14.092,14.414-24.358l12.185,14.535L-1419.297-1093.403z"/>
<path fill-rule="evenodd" clip-rule="evenodd" fill="#2492FF" d="M-1167.852-1100.289c13.399-8.207,20.982-3.087,27.192,3.75
	c7.578,8.342,14.245,22.917-2.119,28.72l24.95-5.688l31.377-16.986c-15.414,4.974-36.427-2.607-42.355-10.572
	c-5.146-6.913-14.854-22.724-1.371-34.976l-26.329,11.931L-1167.852-1100.289z"/>
<path fill-rule="evenodd" clip-rule="evenodd" fill="#6B9A38" stroke="#FFFFFF" stroke-width="2.8346" stroke-miterlimit="22.9256" d="
	M-1175.547-1354.959l-23.88,7.186l-11.87,29.023c46.319,29.549,109.87,92.929,134.075,146.448
	c35.532,78.564,11.067,161.088-71.896,198.687c47.577-11.521,79.694-30.034,101.608-51.968
	C-953.487-1119.693-1068.778-1288.284-1175.547-1354.959z"/>
<path fill-rule="evenodd" clip-rule="evenodd" fill="#6B9A38" stroke="#FFFFFF" stroke-width="2.8346" stroke-miterlimit="22.9256" d="
	M-1228.009-1260.263l-14.254,42.874c130.629,50.183,425.711,186.693,115.383,262.838c121.018,1.092,193.005-55.285,190.439-99.121
	C-941.395-1138.306-1140.008-1244.069-1228.009-1260.263z"/>
<path fill-rule="evenodd" clip-rule="evenodd" fill="#6B9A38" d="M-1126.18-1222.345c-7.063-4.115-12.173-8.291-13.883-11.425
	c-2.83-5.188,1.323-14.092,4.929-14.795c3.462-0.675,9.084,4.174,17.042,11.582l-16.064-26.581l-21.737-13.015
	c11.153,11.395,11.24,16.454,7.306,25.571c-3.414,7.913-9.117,14.769-26.347,7.775l19.192,30.322L-1126.18-1222.345z"/>
<path fill-rule="evenodd" clip-rule="evenodd" fill="#6B9A38" d="M-1018.998-1075.949c-10.37,28.56,25.558,52.131,31.87,29.321
	l1.191,27.689l-22.385,15.624c8.133-8.463,2.784-20.319-1.889-25.542c-3.589-4.012-6.862-6.956-10.017-9.05
	c-9.587-6.362-17.301-1.188-23.205,5.253l-4.951-19.341L-1018.998-1075.949z"/>
<path fill-rule="evenodd" clip-rule="evenodd" fill="#6B9A38" d="M-1045.506-1029.702c-7.903,10.039-4.765,20.843,1.061,28.727
	c5.692,7.701,13.313,12.7,23.405,7.391l-8.157,13.071l-23.194,3.55c3.514-2.389,5.418-5.834,5.169-10.126
	c-0.286-4.913-2.643-8.151-8.039-12.823c-8.363-7.238-19.092-4.884-28.302-0.304l6.496-17.819L-1045.506-1029.702z"/>
<path fill-rule="evenodd" clip-rule="evenodd" fill="#6B9A38" d="M-1177.191-1244.018c-13.808-7.5-13.164-16.627-10.349-25.424
	c3.436-10.734,12.724-23.795,25.932-12.525l-17.401-18.763l-30.399-18.68c12.014,10.861,15.955,32.85,12.022,41.966
	c-3.414,7.913-12.252,24.227-29.605,18.676l23.497,16.836L-1177.191-1244.018z"/>
<path fill-rule="evenodd" clip-rule="evenodd" fill="#B62341" stroke="#FFFFFF" stroke-width="2.8346" stroke-miterlimit="22.9256" d="
	M-1397.473-1118.844c7.21,10.874,12.138,17.15,21.521,27.262l27.208-3.705c2.43-54.889,25.543-141.614,59.79-189.337
	c50.272-70.054,133.973-90.128,208.016-37.079c-33.766-35.442-65.857-54-95.81-62.011c-117.719-31.486-201.746,120.378-218.38,242.8
	C-1396.652-1129.688-1397.106-1129.41-1397.473-1118.844z"/>
<path fill-rule="evenodd" clip-rule="evenodd" fill="#B62341" stroke="#FFFFFF" stroke-width="2.8346" stroke-miterlimit="22.9256" d="
	M-1289.737-1110.059l44.257-9.093c-21.855-138.219-51.174-462.023,169.933-231.343c-59.563-105.351-144.382-139.506-181.062-115.365
	C-1327.426-1419.253-1319.713-1194.366-1289.737-1110.059z"/>
<path fill-rule="evenodd" clip-rule="evenodd" fill="#B62341" d="M-1307.813-1217.204c-0.033,8.174-1.094,14.688-2.953,17.735
	c-3.077,5.045-12.865,5.9-15.277,3.129c-2.315-2.661-0.927-9.954,1.51-20.55l-14.989,27.203l-0.402,25.331
	c4.291-15.355,8.629-17.961,18.492-19.112c8.56-1,17.349,0.512,19.908,18.929l16.663-31.781L-1307.813-1217.204z"/>
<path fill-rule="evenodd" clip-rule="evenodd" fill="#B62341" stroke="#EFA021" stroke-width="0.216" stroke-miterlimit="22.9256" d="
	M-1234.622-1383.225c29.918-5.299,32.368-48.199,9.458-42.26l23.385-14.877l24.724,11.574c-11.396-2.813-18.99,7.749-21.176,14.407
	c-1.679,5.114-2.593,9.421-2.829,13.2c-0.716,11.484,7.622,15.576,16.151,17.469l-14.274,13.958L-1234.622-1383.225z"/>
<path fill-rule="evenodd" clip-rule="evenodd" fill="#B62341" d="M-1181.317-1383.391c12.646,1.824,20.433-6.295,24.347-15.282
	c3.824-8.78,4.343-17.88-5.302-23.965l15.399,0.528l14.672,18.313c-3.826-1.85-7.763-1.775-11.354,0.587
	c-4.112,2.703-5.738,6.363-7.085,13.373c-2.088,10.861,5.315,18.976,13.887,24.662l-18.68,3.285L-1181.317-1383.391z"/>
<path fill-rule="evenodd" clip-rule="evenodd" fill="#B62341" d="M-1301.076-1162.19c0.408,15.708-7.818,19.714-16.844,21.675
	c-11.014,2.392-26.969,0.878-23.813-16.195l-7.549,24.45l-0.978,35.666c3.399-15.835,20.471-30.242,30.333-31.395
	c8.56-0.999,27.106-1.502,30.976,16.302l2.833-28.767L-1301.076-1162.19z"/>
<rect x="119.399" y="-3365.189" fill-rule="evenodd" clip-rule="evenodd" fill="#FFFFFF" stroke="#9999FF" stroke-width="0.5669" stroke-miterlimit="22.9256" width="2702.716" height="1508.954"/>
<rect x="2822.115" y="-3365.189" fill-rule="evenodd" clip-rule="evenodd" fill="#FFFFFF" stroke="#9999FF" stroke-width="0.5669" stroke-miterlimit="22.9256" width="2702.716" height="1508.954"/>
<path fill-rule="evenodd" clip-rule="evenodd" fill="#E6E6E6" d="M404.713-2898.267c108.394,0,196.8-88.406,196.8-196.8
	c0-108.394-88.406-196.8-196.8-196.8c-108.394,0-196.8,88.406-196.8,196.8C207.914-2986.673,296.32-2898.267,404.713-2898.267z"/>
<text transform="matrix(1 0 0 1 371.6895 -2981.4126)" fill="#FFFFFF" font-family="'ModernoTwo'" font-size="318.7715">1</text>
<path fill-rule="evenodd" clip-rule="evenodd" fill="#E6E6E6" d="M3107.43-2898.267c108.394,0,196.8-88.406,196.8-196.8
	c0-108.394-88.406-196.8-196.8-196.8s-196.801,88.406-196.801,196.8C2910.629-2986.673,2999.036-2898.267,3107.43-2898.267z"/>
<text transform="matrix(1 0 0 1 3039.7383 -2983.8296)" fill="#FFFFFF" font-family="'ModernoTwo'" font-size="318.7723">3</text>
<path fill-rule="evenodd" clip-rule="evenodd" fill="#096898" stroke="#FFFFFF" stroke-width="2.8346" stroke-miterlimit="22.9256" d="
	M1330.523-2521.316c-0.95-72.936,19.591-177.488,59.038-242.335c59.656-98.067,132.765-180.929,231.495-253.954
	c-109.304,60.515-188.982,124.324-255.322,206.649c-55.478,68.845-85.785,170.392-101.104,279.637
	C1286.503-2527.125,1308.44-2523.809,1330.523-2521.316z"/>
<path fill-rule="evenodd" clip-rule="evenodd" fill="#096898" stroke="#FFFFFF" stroke-width="2.8346" stroke-miterlimit="22.9256" d="
	M1404.378-2545.924l6.799-1.945c15.582-12.929,30.643-27.081,45.926-41.928c-15.841-77.237-40.393-142.027-43.003-208.388
	c-3.742-95.134,10.38-180.645,62.713-264.801c-78.102,71.279-102.324,160.583-103.634,281.366
	C1372.421-2711.833,1395.808-2639.326,1404.378-2545.924z"/>
<path fill-rule="evenodd" clip-rule="evenodd" fill="#096898" d="M1384.16-2690.15c1.692,9.812-1.468,14.531-16.997,17.137
	c-2.971,0.499-16.763,0.589-11.94-17.367l-14.05,23.327l1.662,21.767c5.375-17.512,20.383-17.186,26.762-18.004
	c11.044-1.415,20.801,10.509,22.501,18.256l13.925-14.039L1384.16-2690.15z"/>
<path fill-rule="evenodd" clip-rule="evenodd" fill="#096898" d="M1395.037-2628.458c2.882,16.72-10.668,21.752-25.409,23.097
	c-17.989,1.641-37.838-3.982-32.798-22.749l-8.382,32.023l2.145,27.09c6.702-14.985,23.551-23.245,40.008-23.701
	c14.283-0.396,28.474,4.33,33.008,24.989l19.829-18.763L1395.037-2628.458z"/>
<path fill-rule="evenodd" clip-rule="evenodd" fill="#096898" d="M1442.298-2889.987c9.291-9.049,4.945-20.037-4.903-25.623
	c-12.478-7.078-15.929-2.671-19.865,7.616l-0.967-28.074l11.052-19.493c-1.543,7.333-1.995,13.564,2.017,19.279
	c3.128,4.456,21.303,20.984,29.24,21.472c7.91,0.485,17.376-4.672,22.129-8.109l-1.296,20.725L1442.298-2889.987z"/>
<path fill-rule="evenodd" clip-rule="evenodd" fill="#096898" d="M1500.976-2938.494c10.752-13.125,3.491-20.916-8.67-29.354
	c-11.203-7.773-52.881-29.178-59.145-4.983l-4.608-5.698l11.738-26.901l12.255-17.375c-1.854,7.104-0.752,14.657,6.049,21.344
	c10.858,10.676,31.282,19.649,39.946,24.882c12.229,7.386,38.424,12.891,54.161,1.908l-15.378,19.316L1500.976-2938.494z"/>
<path fill-rule="evenodd" clip-rule="evenodd" fill="#1DA13C" stroke="#FFFFFF" stroke-width="2.8346" stroke-miterlimit="22.9256" d="
	M1654.291-2585.722c-62.689,37.29-163.505,71.777-239.388,70.039c-114.757-2.629-223.071-24.513-335.678-73.503
	c107.059,64.402,202.159,101.501,306.624,117.791c87.36,13.623,190.457-10.905,292.726-52.259
	C1671.271-2544.694,1663.174-2565.351,1654.291-2585.722z"/>
<path fill-rule="evenodd" clip-rule="evenodd" fill="#1DA13C" stroke="#FFFFFF" stroke-width="2.8346" stroke-miterlimit="22.9256" d="
	M1596.053-2637.377l-5.086-4.919c-18.986-7.029-38.772-12.995-59.271-18.807c-58.971,52.336-102.804,105.994-158.97,141.436
	c-80.517,50.809-161.632,81.334-260.681,78.09c100.781,31.999,190.231,8.324,295.487-50.933
	C1468.35-2526.748,1519.449-2583.254,1596.053-2637.377z"/>
<path fill-rule="evenodd" clip-rule="evenodd" fill="#1DA13C" d="M1481.258-2547.756c7.651-6.371,13.318-5.994,23.34,6.152
	c1.917,2.324,8.892,14.222-9.07,19.024l27.227,0.504l18.02-12.323c-17.854,4.101-25.074-9.059-28.973-14.175
	c-6.747-8.856-1.3-23.268,4.56-28.614l-19.12-5.04L1481.258-2547.756z"/>
<path fill-rule="evenodd" clip-rule="evenodd" fill="#1DA13C" d="M1529.247-2588.021c13.039-10.855,24.172-1.638,32.707,10.457
	c10.416,14.759,15.471,34.759-3.302,39.778l31.924-8.753l22.388-15.401c-16.329,1.688-31.905-8.774-40.529-22.798
	c-7.484-12.172-10.486-26.824,5.138-41.08l-26.163-7.791L1529.247-2588.021z"/>
<path fill-rule="evenodd" clip-rule="evenodd" fill="#1DA13C" d="M1279.125-2498.187c-12.481-3.521-19.825,5.735-19.738,17.059
	c0.109,14.344,5.65,15.13,16.529,13.396l-23.83,14.874l-22.408,0.176c7.122-2.331,12.745-5.055,15.688-11.387
	c2.295-4.937,7.522-28.94,3.976-36.058c-3.534-7.093-12.733-12.713-18.088-15.11l18.597-9.239L1279.125-2498.187z"/>
<path fill-rule="evenodd" clip-rule="evenodd" fill="#1DA13C" d="M1207.778-2524.749c-16.742-2.75-19.859,7.435-21.087,22.186
	c-1.13,13.589,1.172,60.386,25.258,53.713l-2.631,6.839l-29.167,3.286l-21.175-1.925c7.08-1.947,13.07-6.679,15.46-15.911
	c3.816-14.741,1.376-36.916,1.575-47.035c0.282-14.284-8.048-39.722-25.428-47.859l24.417,3.66L1207.778-2524.749z"/>
<path fill-rule="evenodd" clip-rule="evenodd" fill="#EFA021" stroke="#FFFFFF" stroke-width="2.8346" stroke-miterlimit="22.9256" d="
	M1436.631-2833.91c63.639,35.646,143.913,105.71,180.349,172.297c55.101,100.696,90.308,205.441,104.184,327.457
	c2.244-124.917-13.178-225.825-51.303-324.44c-31.883-82.467-104.672-159.488-191.621-227.377
	C1463.671-2869.128,1449.831-2851.789,1436.631-2833.91z"/>
<path fill-rule="evenodd" clip-rule="evenodd" fill="#EFA021" stroke="#FFFFFF" stroke-width="2.8346" stroke-miterlimit="22.9256" d="
	M1421.015-2757.646l-1.716,6.861c3.406,19.959,8.132,40.077,13.349,60.736c74.81,24.9,143.195,36.033,201.971,66.953
	c84.26,44.326,151.253,99.312,197.968,186.711c-22.68-103.277-87.907-168.907-191.853-230.433
	C1580.674-2702.367,1506.188-2718.368,1421.015-2757.646z"/>
<path fill-rule="evenodd" clip-rule="evenodd" fill="#EFA021" d="M1556.026-2703.042c-9.343-3.441-11.851-8.536-6.342-23.289
	c1.054-2.822,7.87-14.811,21.01-1.656l-13.177-23.832l-19.682-9.444c12.479,13.411,4.692,26.245,2.211,32.178
	c-4.297,10.272-19.501,12.76-27.06,10.359l5.194,19.078L1556.026-2703.042z"/>
<path fill-rule="evenodd" clip-rule="evenodd" fill="#EFA021" d="M1497.161-2724.469c-15.922-5.864-13.505-20.115-7.299-33.553
	c7.574-16.399,22.367-30.777,36.1-17.029l-23.541-23.271l-24.533-11.688c9.627,13.297,8.354,32.018,0.521,46.499
	c-6.799,12.567-17.986,22.494-38.145,16.091l6.334,26.554L1497.161-2724.469z"/>
<path fill-rule="evenodd" clip-rule="evenodd" fill="#EFA021" d="M1700.021-2552.774c3.192,12.57,14.881,14.301,24.643,8.564
	c12.368-7.267,10.278-12.459,3.337-21.012l24.796,13.2l11.356,19.318c-5.579-5.003-10.75-8.51-17.704-7.893
	c-5.423,0.481-28.824,7.956-33.215,14.586c-4.377,6.608-4.644,17.384-4.043,23.22l-17.299-11.486L1700.021-2552.774z"/>
<path fill-rule="evenodd" clip-rule="evenodd" fill="#EFA021" d="M1712.691-2477.705c5.989,15.874,16.368,13.482,29.756,7.169
	c12.333-5.816,51.71-31.208,33.888-48.729l7.238-1.142l17.429,23.617l8.921,19.3c-5.227-5.158-12.319-7.98-21.51-5.433
	c-14.675,4.065-32.658,17.266-41.521,22.153c-12.511,6.898-30.376,26.831-28.732,45.951l-9.04-22.976L1712.691-2477.705z"/>
<path fill-rule="evenodd" clip-rule="evenodd" fill="#096898" d="M3930.341-2799.423c-6.32,131.388,215.928,276.217,361.09,275.723
	c15.561,31.24,35.488,59.789,58.928,84.912C4186.868-2455.504,3905.124-2562.223,3930.341-2799.423z"/>
<path fill-rule="evenodd" clip-rule="evenodd" fill="#096898" stroke="#FFFFFF" stroke-width="4.252" stroke-miterlimit="22.9256" d="
	M3826.918-2779.323c45.684,49.801,120.448,79.252,185.155,77.413c171.924-4.887,209.547-73.206,251.772,102.42
	C4090.356-2658.119,3909.469-2634.572,3826.918-2779.323z"/>
<path fill-rule="evenodd" clip-rule="evenodd" fill="#096898" d="M4220.735-2527.456l24.681-0.342
	c-29.062-10.521-44.313-29.064-33.569-58.498c2.441-6.686,3.395-27.952,47.324-18.138l-24.254-40.167l-61.443,17.541
	c20.334,4.864,33.388,26.45,28.178,40.706c-9.016,24.672-33.262,36.306-47.156,30.883l7.203,19.832L4220.735-2527.456z"/>
<path fill-rule="evenodd" clip-rule="evenodd" fill="#096898" d="M3906.476-2714.096l8.258-2.835
	c-6.85-5.341-9.573-8.063,0.756-16.195c1.978-1.557,12.4-8.062,16.801,6.853l1.488-19.413l-5.498-15.4
	c1.268,15.795-11.428,22.774-15.773,25.93c-7.52,5.462-25.985,5.643-30.582,2.587l1.176,7.018L3906.476-2714.096z"/>
<path fill-rule="evenodd" clip-rule="evenodd" fill="#096898" d="M4097.772-2576.962l17.676,2.933
	c-19.406-11.258-27.916-26.468-16.45-46.112c2.604-4.462,14.618-26.677,44.739-14.011l-20.752-24.672l-44.721,12.728
	c14.121,4.822,19.015,15.087,13.457,24.601c-9.617,16.465-24.986,17.511-34.214,11.848l-0.858,19.239L4097.772-2576.962z"/>
<path fill-rule="evenodd" clip-rule="evenodd" fill="#1DA13C" d="M4294.657-2477.441c106.489-54.834,119.512-296.036,53.031-410.284
	c17.551-26.494,30.991-55.206,40.131-85.129C4449.073-2836.316,4493.192-2565.549,4294.657-2477.441z"/>
<path fill-rule="evenodd" clip-rule="evenodd" fill="#1DA13C" stroke="#FFFFFF" stroke-width="4.252" stroke-miterlimit="22.9256" d="
	M4357.596-2405.033c18.474-58.7,7.657-131.066-23.253-181.257c-82.129-133.352-153.133-131.916-33.862-245.174
	C4333.234-2667.96,4434.159-2536.035,4357.596-2405.033z"/>
<path fill-rule="evenodd" clip-rule="evenodd" fill="#1DA13C" d="M4376.913-2830.265l-11.506-19.306
	c4.934,27.707-2.744,48.177-30.848,53.104c-6.383,1.119-23.588,10.051-35.85-29.061l-20.631,37.414l41.807,40.467
	c-5.423-18.25,5.656-38.372,19.27-40.754c23.562-4.123,43.774,9.701,45.824,23.126l12.359-14.709L4376.913-2830.265z"/>
<path fill-rule="evenodd" clip-rule="evenodd" fill="#1DA13C" d="M4372.812-2497.469l-5.996-5.221
	c-1.094,7.833-2,11.22-13.115,6.778c-2.129-0.851-12.002-6.108-2.244-16.369l-15.987,7.665l-9.642,11.347
	c11.879-8.19,23.162-1.356,27.629,0.634c7.73,3.443,16.281,17.923,15.964,22.938l4.999-4.122L4372.812-2497.469z"/>
<path fill-rule="evenodd" clip-rule="evenodd" fill="#1DA13C" d="M4393.857-2710.759l-5.735-15.273
	c-0.042,20.429-8.162,34.064-28.873,33.967c-4.705-0.023-27.693,0.618-31.418-28.902l-10.008,27.598l30.397,29.471
	c-2.626-13.331,3.24-21.863,13.272-21.813c17.363,0.088,25.185,11.731,24.92,21.586l15.563-8.083L4393.857-2710.759z"/>
<path fill-rule="evenodd" clip-rule="evenodd" fill="#EFA021" d="M4406.233-2938.442c-110.605-71.156-347.111,48.88-419.252,174.818
	c-34.828-2.144-69.51,0.838-102.98,8.576C3980.206-2888.253,4213.456-3078.856,4406.233-2938.442z"/>
<path fill-rule="evenodd" clip-rule="evenodd" fill="#EFA021" stroke="#FFFFFF" stroke-width="4.252" stroke-miterlimit="22.9256" d="
	M4440.532-3038.042c-65.959,14.661-128.835,64.674-159.591,121.621c-92.948,172.105-48.386,215.959-214.545,166.8
	C4203.89-2870.529,4273.929-3038.926,4440.532-3038.042z"/>
<path fill-rule="evenodd" clip-rule="evenodd" fill="#EFA021" d="M4025.575-2822.958l-12.041,21.54
	c23.637-19.902,47.318-23.84,67.432,0.178c4.568,5.456,22.507,16.912-7.952,50.043l46.903-0.922l15.528-61.97
	c-14.376,15.175-39.593,15.687-49.331,4.05c-16.857-20.141-14.809-46.951-3.168-56.271l-20.773-3.678L4025.575-2822.958z"/>
<path fill-rule="evenodd" clip-rule="evenodd" fill="#EFA021" d="M4344.282-3001.762l-1.674,8.566
	c8.049-3.261,11.768-4.258,13.645,8.75c0.36,2.491,0.782,14.768-14.332,11.122l16.065,10.994l16.083,2.939
	c-14.311-6.799-14.006-21.281-14.566-26.621c-0.969-9.241,8.105-25.321,13.049-27.773l-6.665-2.489L4344.282-3001.762z"/>
<path fill-rule="evenodd" clip-rule="evenodd" fill="#EFA021" d="M4129.911-2904.679l-11.375,13.838
	c19.449-11.176,36.873-10.94,48.15,8.808c2.561,4.487,15.791,25.995-10.234,45.742l31.737-5.634l11.335-45.084
	c-11.234,9.815-22.568,8.922-28.027-0.646c-9.449-16.559-2.672-30.389,6.844-35.548l-16.229-10.361L4129.911-2904.679z"/>
<path fill-rule="evenodd" clip-rule="evenodd" fill="#E6E6E6" d="M-2298.003-1389.313c108.394,0,196.8-88.407,196.8-196.8
	c0-108.394-88.406-196.8-196.8-196.8c-108.395,0-196.801,88.407-196.801,196.8
	C-2494.804-1477.721-2406.397-1389.313-2298.003-1389.313z"/>
<text transform="matrix(1 0 0 1 -2369.8115 -1476.4707)" fill="#FFFFFF" font-family="'ModernoTwo'" font-size="318.7715">4</text>
<path fill-rule="evenodd" clip-rule="evenodd" fill="#E6E6E6" d="M404.713-1389.313c108.394,0,196.8-88.407,196.8-196.8
	c0-108.394-88.406-196.8-196.8-196.8s-196.8,88.407-196.8,196.8C207.913-1477.721,296.319-1389.313,404.713-1389.313z"/>
<text transform="matrix(1 0 0 1 334.8706 -1475.5674)" fill="#FFFFFF" font-family="'ModernoTwo'" font-size="318.7715">5</text>
<path fill-rule="evenodd" clip-rule="evenodd" fill="#99CC33" d="M-1412.514-2347.787h0.012c0.127-0.003,0.254-0.006,0.382-0.006
	c5.33,0,9.905,3.233,11.872,7.845v0l33.263,65.25l32.85-64.472h0.001c1.765-5.022,6.548-8.623,12.173-8.623
	c7.125,0,12.9,5.775,12.9,12.9c0,1.867-0.397,3.642-1.111,5.244h0l-0.004,0.009c-0.181,0.404-0.381,0.799-0.601,1.181
	l-44.314,87.013c-1.944,4.661-6.544,7.937-11.91,7.937c-4.45,0-8.374-2.253-10.693-5.682l0,0c-0.585-0.865-1.067-1.804-1.43-2.801
	l-33.167-64.937l-33.352,65.488c-1.944,4.661-6.544,7.937-11.91,7.937c-4.45,0-8.374-2.253-10.693-5.681l0-0.001
	c-0.585-0.865-1.067-1.804-1.431-2.801l-44.069-86.283c-0.296-0.495-0.56-1.01-0.789-1.545l-0.003-0.006h0
	c-0.665-1.555-1.033-3.268-1.033-5.066c0-7.125,5.776-12.9,12.9-12.9c5.33,0,9.905,3.233,11.872,7.845h0l33.263,65.25l32.85-64.473
	h0.001C-1422.922-2344.187-1418.139-2347.787-1412.514-2347.787z"/>
<path fill-rule="evenodd" clip-rule="evenodd" fill="#99CC33" d="M-1138.76-2280.8h57.619c7.124,0,12.9-5.776,12.9-12.9
	c0-7.124-5.776-12.899-12.9-12.899h-52.069c-16.874,0-28.61,6.78-30.83,22.928c-0.076,0.474-0.132,0.942-0.167,1.403l-0.007,0.09
	c-0.552,5.621-0.287,11.678-0.346,17.344c0,32.005,32.314,31.252,57.035,31.062c16.402-0.125,8.21-0.094,15.955-0.094
	c48.929,0,60.058,1.434,58.407-49.54v-41.431c0-16.9-15.652-22.95-30.15-22.95h-34.281c-7.125,0-12.9,5.775-12.9,12.9
	c0,7.124,5.775,12.9,12.9,12.9h38.631v62.703h-79.797v-11.316V-2280.8z"/>
<path fill-rule="evenodd" clip-rule="evenodd" fill="#99CC33" d="M-1289.548-2347.787c7.125,0,12.9,5.775,12.9,12.9v75.603
	l89.31-0.02c7.125,0,12.9,5.775,12.9,12.9s-5.775,12.9-12.9,12.9c-34.069-0.26-68.14-0.217-102.21-0.217
	c-0.384,0-0.764-0.018-1.14-0.051c-6.665-0.62-11.76-6.14-11.76-12.85v-88.266
	C-1302.448-2342.012-1296.672-2347.787-1289.548-2347.787z"/>
<path fill-rule="evenodd" clip-rule="evenodd" fill="#99CC33" d="M-911.861-2280.8h-67.219c-7.124,0-12.9-5.776-12.9-12.9
	c0-7.124,5.776-12.899,12.9-12.899h61.669c16.874,0,28.61,6.78,30.83,22.928c0.075,0.474,0.132,0.942,0.167,1.403l0.007,0.09
	c0.552,5.621,0.288,11.678,0.346,17.344c0,32.005-32.315,31.252-57.035,31.062c-16.403-0.125-8.21-0.094-15.955-0.094
	c-44.511,0-58.875,1.193-58.523-36.975l0.116-12.564l25.8,3.587v20.535h79.797v-11.316V-2280.8z"/>
<path fill-rule="evenodd" clip-rule="evenodd" fill="#99CC33" d="M-1004.558-2347.787c7.125,0,12.9,5.775,12.9,12.9v75.603
	l-25.8,0.465v-76.068C-1017.458-2342.012-1011.683-2347.787-1004.558-2347.787z"/>
<path fill-rule="evenodd" clip-rule="evenodd" fill="#99CC33" d="M1290.203-2347.787h0.012c0.127-0.003,0.254-0.006,0.382-0.006
	c5.33,0,9.905,3.233,11.871,7.845l0.001,0l33.263,65.25l32.85-64.472h0.001c1.765-5.022,6.548-8.623,12.173-8.623
	c7.125,0,12.9,5.775,12.9,12.9c0,1.867-0.397,3.642-1.111,5.244l0,0l-0.004,0.009c-0.181,0.404-0.381,0.799-0.602,1.181
	l-44.313,87.013c-1.944,4.661-6.544,7.937-11.91,7.937c-4.45,0-8.374-2.253-10.692-5.682l-0.001,0
	c-0.585-0.865-1.067-1.804-1.431-2.801l-33.166-64.937l-33.352,65.488c-1.945,4.661-6.545,7.937-11.91,7.937
	c-4.45,0-8.375-2.253-10.693-5.681v-0.001c-0.585-0.865-1.067-1.804-1.431-2.801l-44.069-86.283
	c-0.296-0.495-0.561-1.01-0.789-1.545l-0.003-0.006l0,0c-0.665-1.555-1.033-3.268-1.033-5.066c0-7.125,5.775-12.9,12.9-12.9
	c5.329,0,9.904,3.233,11.871,7.845l0,0l33.263,65.25l32.851-64.473h0.001C1279.794-2344.187,1284.578-2347.787,1290.203-2347.787z"
	/>
<path fill-rule="evenodd" clip-rule="evenodd" fill="#99CC33" d="M1563.956-2280.8h57.619c7.125,0,12.9-5.776,12.9-12.9
	c0-7.124-5.775-12.899-12.9-12.899h-52.068c-16.874,0-28.61,6.78-30.83,22.928c-0.075,0.474-0.132,0.942-0.167,1.403l-0.007,0.09
	c-0.552,5.621-0.288,11.678-0.347,17.344c0,32.005,32.315,31.252,57.035,31.062c16.402-0.125,8.21-0.094,15.954-0.094
	c48.93,0,60.059,1.434,58.408-49.54v-41.431c0-16.9-15.652-22.95-30.15-22.95h-34.281c-7.124,0-12.899,5.775-12.899,12.9
	c0,7.124,5.775,12.9,12.899,12.9h38.632v62.703h-79.798v-11.316V-2280.8z"/>
<path fill-rule="evenodd" clip-rule="evenodd" fill="#99CC33" d="M1413.168-2347.787c7.124,0,12.9,5.775,12.9,12.9v75.603
	l89.31-0.02c7.125,0,12.9,5.775,12.9,12.9s-5.775,12.9-12.9,12.9c-34.069-0.26-68.14-0.217-102.21-0.217
	c-0.384,0-0.764-0.018-1.14-0.051c-6.664-0.62-11.76-6.14-11.76-12.85v-88.266
	C1400.269-2342.012,1406.044-2347.787,1413.168-2347.787z"/>
<path fill-rule="evenodd" clip-rule="evenodd" fill="#99CC33" d="M1790.855-2280.8h-67.219c-7.125,0-12.9-5.776-12.9-12.9
	c0-7.124,5.775-12.899,12.9-12.899h61.669c16.873,0,28.609,6.78,30.83,22.928c0.075,0.474,0.131,0.942,0.167,1.403l0.007,0.09
	c0.552,5.621,0.287,11.678,0.346,17.344c0,32.005-32.314,31.252-57.035,31.062c-16.402-0.125-8.209-0.094-15.954-0.094
	c-44.512,0-58.876,1.193-58.523-36.975l0.116-12.564l25.8,3.587v20.535h79.797v-11.316V-2280.8z"/>
<path fill-rule="evenodd" clip-rule="evenodd" fill="#99CC33" d="M1698.158-2347.787c7.124,0,12.9,5.775,12.9,12.9v75.603
	l-25.8,0.465v-76.068C1685.259-2342.012,1691.034-2347.787,1698.158-2347.787z"/>
<path fill-rule="evenodd" clip-rule="evenodd" fill="#99CC33" d="M3992.919-2347.787h0.012c0.127-0.003,0.254-0.006,0.383-0.006
	c5.33,0,9.904,3.233,11.871,7.845v0l33.264,65.25l32.85-64.472l0,0c1.766-5.022,6.549-8.623,12.174-8.623
	c7.124,0,12.9,5.775,12.9,12.9c0,1.867-0.398,3.642-1.111,5.244l0,0l-0.004,0.009c-0.182,0.404-0.382,0.799-0.602,1.181
	l-44.314,87.013c-1.943,4.661-6.543,7.937-11.91,7.937c-4.449,0-8.373-2.253-10.692-5.682l-0.001,0
	c-0.584-0.865-1.066-1.804-1.43-2.801l-33.166-64.937l-33.354,65.488c-1.943,4.661-6.543,7.937-11.909,7.937
	c-4.45,0-8.374-2.253-10.692-5.681l-0.001-0.001c-0.585-0.865-1.067-1.804-1.431-2.801l-44.068-86.283
	c-0.297-0.495-0.561-1.01-0.789-1.545l-0.004-0.006h0.001c-0.665-1.555-1.033-3.268-1.033-5.066c0-7.125,5.775-12.9,12.899-12.9
	c5.33,0,9.905,3.233,11.871,7.845h0.001l33.263,65.25l32.85-64.473h0.001C3982.511-2344.187,3987.294-2347.787,3992.919-2347.787z"
	/>
<path fill-rule="evenodd" clip-rule="evenodd" fill="#99CC33" d="M4266.673-2280.8h57.619c7.125,0,12.9-5.776,12.9-12.9
	c0-7.124-5.775-12.899-12.9-12.899h-52.068c-16.874,0-28.611,6.78-30.83,22.928c-0.076,0.474-0.133,0.942-0.168,1.403l-0.006,0.09
	c-0.553,5.621-0.288,11.678-0.348,17.344c0,32.005,32.316,31.252,57.035,31.062c16.403-0.125,8.211-0.094,15.955-0.094
	c48.93,0,60.058,1.434,58.407-49.54v-41.431c0-16.9-15.651-22.95-30.149-22.95h-34.281c-7.125,0-12.9,5.775-12.9,12.9
	c0,7.124,5.775,12.9,12.9,12.9h38.631v62.703h-79.797v-11.316V-2280.8z"/>
<path fill-rule="evenodd" clip-rule="evenodd" fill="#99CC33" d="M4115.885-2347.787c7.124,0,12.899,5.775,12.899,12.9v75.603
	l89.311-0.02c7.124,0,12.899,5.775,12.899,12.9s-5.775,12.9-12.899,12.9c-34.07-0.26-68.141-0.217-102.21-0.217
	c-0.384,0-0.765-0.018-1.14-0.051c-6.664-0.62-11.76-6.14-11.76-12.85v-88.266
	C4102.985-2342.012,4108.761-2347.787,4115.885-2347.787z"/>
<path fill-rule="evenodd" clip-rule="evenodd" fill="#99CC33" d="M4493.571-2280.8h-67.219c-7.124,0-12.9-5.776-12.9-12.9
	c0-7.124,5.776-12.899,12.9-12.899h61.669c16.874,0,28.61,6.78,30.83,22.928c0.075,0.474,0.132,0.942,0.167,1.403l0.006,0.09
	c0.553,5.621,0.289,11.678,0.348,17.344c0,32.005-32.315,31.252-57.035,31.062c-16.402-0.125-8.21-0.094-15.955-0.094
	c-44.512,0-58.875,1.193-58.523-36.975l0.115-12.564l25.801,3.587v20.535h79.797v-11.316V-2280.8z"/>
<path fill-rule="evenodd" clip-rule="evenodd" fill="#99CC33" d="M4400.874-2347.787c7.125,0,12.9,5.775,12.9,12.9v75.603
	l-25.801,0.465v-76.068C4387.974-2342.012,4393.751-2347.787,4400.874-2347.787z"/>
<path fill-rule="evenodd" clip-rule="evenodd" fill="#99CC33" d="M3992.919-838.834h0.011c0.127-0.003,0.255-0.006,0.382-0.006
	c5.33,0,9.906,3.233,11.872,7.845h0.001l33.262,65.25l32.85-64.473l0.002,0.001c1.764-5.022,6.548-8.623,12.172-8.623
	c7.125,0,12.9,5.775,12.9,12.899c0,1.867-0.397,3.642-1.111,5.244h0.001l-0.005,0.009c-0.18,0.405-0.381,0.799-0.601,1.181
	l-44.313,87.013c-1.945,4.661-6.545,7.938-11.91,7.938c-4.451,0-8.375-2.253-10.693-5.682l0,0c-0.586-0.865-1.068-1.805-1.432-2.802
	l-33.166-64.936l-33.352,65.488c-1.944,4.66-6.545,7.937-11.91,7.937c-4.45,0-8.374-2.253-10.693-5.681v-0.001
	c-0.584-0.865-1.066-1.805-1.43-2.802l-44.07-86.282c-0.296-0.495-0.561-1.011-0.789-1.545l-0.004-0.007h0.002
	c-0.666-1.556-1.033-3.268-1.033-5.066c0-7.124,5.775-12.899,12.899-12.899c5.329,0,9.905,3.233,11.872,7.845l0,0l33.263,65.251
	l32.85-64.473h0.001C3982.51-835.233,3987.293-838.834,3992.919-838.834z"/>
<path fill-rule="evenodd" clip-rule="evenodd" fill="#99CC33" d="M4266.671-771.847h57.619c7.125,0,12.9-5.775,12.9-12.9
	c0-7.124-5.775-12.899-12.9-12.899h-52.068c-16.873,0-28.61,6.78-30.83,22.929c-0.074,0.473-0.132,0.941-0.167,1.402l-0.007,0.09
	c-0.552,5.621-0.287,11.678-0.346,17.344c0,32.006,32.314,31.252,57.034,31.063c16.403-0.126,8.21-0.095,15.955-0.095
	c48.929,0,60.058,1.435,58.407-49.539v-41.431c0-16.9-15.652-22.95-30.15-22.95h-34.281c-7.123,0-12.898,5.775-12.898,12.899
	c0,7.125,5.775,12.9,12.898,12.9h38.632v62.703h-79.798v-11.316V-771.847z"/>
<path fill-rule="evenodd" clip-rule="evenodd" fill="#99CC33" d="M4115.884-838.834c7.124,0,12.899,5.775,12.899,12.899v75.604
	l89.311-0.02c7.124,0,12.899,5.776,12.899,12.9s-5.775,12.899-12.899,12.899c-34.069-0.26-68.14-0.217-102.21-0.217
	c-0.385,0-0.765-0.018-1.141-0.051c-6.664-0.62-11.76-6.14-11.76-12.849v-88.268
	C4102.983-833.059,4108.759-838.834,4115.884-838.834z"/>
<path fill-rule="evenodd" clip-rule="evenodd" fill="#99CC33" d="M4493.571-771.847h-67.219c-7.125,0-12.9-5.775-12.9-12.9
	c0-7.124,5.775-12.899,12.9-12.899h61.668c16.873,0,28.611,6.78,30.83,22.929c0.074,0.473,0.132,0.941,0.167,1.402l0.007,0.09
	c0.551,5.621,0.287,11.678,0.346,17.344c0,32.006-32.314,31.252-57.034,31.063c-16.403-0.126-8.21-0.095-15.954-0.095
	c-44.512,0-58.877,1.193-58.524-36.975l0.116-12.564l25.8,3.587v20.535h79.798v-11.316V-771.847z"/>
<path fill-rule="evenodd" clip-rule="evenodd" fill="#99CC33" d="M4400.874-838.834c7.124,0,12.899,5.775,12.899,12.899v75.604
	l-25.8,0.465v-76.068C4387.974-833.059,4393.749-838.834,4400.874-838.834z"/>
<path fill-rule="evenodd" clip-rule="evenodd" fill="#99CC33" d="M1290.202-838.834h0.012c0.127-0.003,0.254-0.006,0.382-0.006
	c5.33,0,9.905,3.233,11.872,7.845l0,0l33.263,65.25l32.85-64.473l0.001,0.001c1.765-5.022,6.548-8.623,12.174-8.623
	c7.124,0,12.899,5.775,12.899,12.899c0,1.867-0.397,3.642-1.111,5.244h0.001l-0.005,0.009c-0.181,0.405-0.381,0.799-0.601,1.181
	l-44.314,87.013c-1.944,4.661-6.544,7.938-11.91,7.938c-4.45,0-8.374-2.253-10.692-5.682h-0.001
	c-0.584-0.865-1.066-1.805-1.43-2.802l-33.167-64.936l-33.352,65.488c-1.944,4.66-6.545,7.937-11.91,7.937
	c-4.45,0-8.374-2.253-10.693-5.681v-0.001c-0.585-0.865-1.067-1.805-1.431-2.802l-44.069-86.282
	c-0.296-0.495-0.56-1.011-0.789-1.545l-0.003-0.007l0,0c-0.665-1.556-1.033-3.268-1.033-5.066c0-7.124,5.775-12.899,12.9-12.899
	c5.33,0,9.905,3.233,11.871,7.845l0,0l33.264,65.251l32.85-64.473h0.001C1279.794-835.233,1284.577-838.834,1290.202-838.834z"/>
<path fill-rule="evenodd" clip-rule="evenodd" fill="#99CC33" d="M1563.956-771.847h57.619c7.124,0,12.899-5.775,12.899-12.9
	c0-7.124-5.775-12.899-12.899-12.899h-52.069c-16.874,0-28.61,6.78-30.83,22.929c-0.075,0.473-0.132,0.941-0.167,1.402l-0.007,0.09
	c-0.552,5.621-0.288,11.678-0.347,17.344c0,32.006,32.315,31.252,57.035,31.063c16.402-0.126,8.21-0.095,15.955-0.095
	c48.93,0,60.057,1.435,58.407-49.539v-41.431c0-16.9-15.651-22.95-30.149-22.95h-34.281c-7.125,0-12.9,5.775-12.9,12.899
	c0,7.125,5.775,12.9,12.9,12.9h38.631v62.703h-79.797v-11.316V-771.847z"/>
<path fill-rule="evenodd" clip-rule="evenodd" fill="#99CC33" d="M1413.167-838.834c7.125,0,12.9,5.775,12.9,12.899v75.604
	l89.31-0.02c7.125,0,12.9,5.776,12.9,12.9s-5.775,12.899-12.9,12.899c-34.069-0.26-68.14-0.217-102.21-0.217
	c-0.384,0-0.764-0.018-1.14-0.051c-6.664-0.62-11.76-6.14-11.76-12.849v-88.268C1400.268-833.059,1406.043-838.834,1413.167-838.834
	z"/>
<path fill-rule="evenodd" clip-rule="evenodd" fill="#99CC33" d="M1790.854-771.847h-67.219c-7.125,0-12.9-5.775-12.9-12.9
	c0-7.124,5.775-12.899,12.9-12.899h61.669c16.873,0,28.61,6.78,30.829,22.929c0.076,0.473,0.133,0.941,0.168,1.402l0.007,0.09
	c0.552,5.621,0.287,11.678,0.346,17.344c0,32.006-32.314,31.252-57.034,31.063c-16.402-0.126-8.211-0.095-15.955-0.095
	c-44.512,0-58.875,1.193-58.523-36.975l0.116-12.564l25.8,3.587v20.535h79.797v-11.316V-771.847z"/>
<path fill-rule="evenodd" clip-rule="evenodd" fill="#99CC33" d="M1698.157-838.834c7.125,0,12.9,5.775,12.9,12.899v75.604
	l-25.8,0.465v-76.068C1685.258-833.059,1691.033-838.834,1698.157-838.834z"/>
<path fill-rule="evenodd" clip-rule="evenodd" d="M1800.144,236.581h0.021c0.242-0.005,0.484-0.011,0.729-0.011
	c10.147,0,18.857,6.156,22.603,14.936l0,0l63.33,124.233l62.545-122.753l0.002,0.002c3.36-9.563,12.467-16.418,23.177-16.418
	c13.564,0,24.561,10.996,24.561,24.56c0,3.556-0.757,6.934-2.115,9.984h0.002l-0.01,0.018c-0.344,0.771-0.725,1.521-1.144,2.247
	l-84.372,165.668c-3.701,8.875-12.46,15.113-22.676,15.113c-8.473,0-15.943-4.29-20.359-10.818l0,0
	c-1.114-1.646-2.033-3.436-2.725-5.334l-63.146-123.634l-63.5,124.687c-3.702,8.872-12.461,15.11-22.677,15.11
	c-8.473,0-15.944-4.289-20.358-10.815l-0.001-0.002c-1.114-1.647-2.031-3.437-2.724-5.335L1607.4,273.742
	c-0.564-0.943-1.066-1.925-1.503-2.941l-0.005-0.014l0,0c-1.267-2.962-1.968-6.221-1.968-9.646
	c0-13.564,10.996-24.561,24.561-24.561c10.148,0,18.859,6.156,22.604,14.937l0,0l63.332,124.234l62.543-122.753h0.002
	C1780.326,243.437,1789.433,236.581,1800.144,236.581z"/>
<path fill-rule="evenodd" clip-rule="evenodd" d="M2321.355,364.122h109.704c13.564,0,24.562-10.996,24.562-24.562
	c0-13.564-10.997-24.561-24.562-24.561h-99.137c-32.127,0-54.473,12.91-58.697,43.655c-0.145,0.9-0.252,1.793-0.319,2.67
	l-0.013,0.171c-1.051,10.703-0.548,22.234-0.66,33.022c0,60.938,61.527,59.502,108.593,59.141c31.229-0.239,15.632-0.18,30.376-0.18
	c93.159,0,114.346,2.731,111.205-94.32v-78.882c0-32.178-29.801-43.696-57.404-43.696h-65.269
	c-13.564,0-24.561,10.996-24.561,24.561c0,13.565,10.996,24.562,24.561,24.562h73.552v119.384h-151.931v-21.546V364.122z"/>
<path fill-rule="evenodd" clip-rule="evenodd" d="M2034.263,236.581c13.564,0,24.561,10.996,24.561,24.561v143.945l170.042-0.037
	c13.564,0,24.561,10.997,24.561,24.562c0,13.563-10.996,24.56-24.561,24.56c-64.866-0.494-129.734-0.413-194.603-0.413
	c-0.73,0-1.455-0.033-2.17-0.097c-12.689-1.181-22.391-11.689-22.391-24.463V261.142
	C2009.702,247.577,2020.698,236.581,2034.263,236.581z"/>
<path fill-rule="evenodd" clip-rule="evenodd" d="M2753.36,364.122h-127.982c-13.564,0-24.561-10.996-24.561-24.562
	c0-13.564,10.996-24.561,24.561-24.561h117.415c32.126,0,54.473,12.91,58.699,43.655c0.144,0.9,0.25,1.793,0.317,2.67l0.014,0.171
	c1.051,10.703,0.547,22.234,0.658,33.022c0,60.938-61.525,59.502-108.59,59.141c-31.23-0.239-15.632-0.18-30.379-0.18
	c-84.746,0-112.094,2.271-111.424-70.398l0.221-23.922l49.121,6.829v39.099h151.93v-21.546V364.122z"/>
<path fill-rule="evenodd" clip-rule="evenodd" d="M2576.87,236.581c13.564,0,24.561,10.996,24.561,24.561v143.945l-49.121,0.885
	v-144.83C2552.31,247.577,2563.306,236.581,2576.87,236.581z"/>
<path fill-rule="evenodd" clip-rule="evenodd" fill="#E6E6E6" d="M-2298.002-2898.267c108.393,0,196.8-88.406,196.8-196.8
	c0-108.394-88.407-196.8-196.8-196.8c-108.394,0-196.8,88.406-196.8,196.8C-2494.803-2986.673-2406.396-2898.267-2298.002-2898.267z
	"/>
<text transform="matrix(1 0 0 1 -2331.0269 -2981.4126)" fill="#FFFFFF" font-family="'ModernoTwo'" font-size="318.7715">1</text>
<path fill-rule="evenodd" clip-rule="evenodd" fill="#E6E6E6" d="M404.713-2898.267c108.394,0,196.8-88.406,196.8-196.8
	c0-108.394-88.406-196.8-196.8-196.8c-108.394,0-196.8,88.406-196.8,196.8C207.914-2986.673,296.32-2898.267,404.713-2898.267z"/>
<text transform="matrix(1 0 0 1 337.0225 -2983.8296)" fill="#FFFFFF" font-family="'ModernoTwo'" font-size="318.7723">2</text>
<text transform="matrix(1 0 0 1 -1488.0659 -796.8389)" fill="#282627" font-family="'Roboto-Bold'" font-size="172">WGLab</text>
<path fill-rule="evenodd" clip-rule="evenodd" fill="#F3AD16" stroke="#FFFFFF" stroke-width="2.8346" stroke-miterlimit="22.9256" d="
	M-1709.943,457.127l5.717-24.274l-19.2-24.792c-48.75,25.34-135.414,48.687-193.865,42.889
	c-85.805-8.51-145.04-70.959-136.12-161.607c-13.811,46.964-13.836,84.035-5.798,113.979
	C-2024.72,531.804-1821.07,516.254-1709.943,457.127z"/>
<path fill-rule="evenodd" clip-rule="evenodd" fill="#F3AD16" stroke="#FFFFFF" stroke-width="2.8346" stroke-miterlimit="22.9256" d="
	M-1765.722,364.345l-30.003-33.781c-108.773,88.037-374.537,275.33-285.316-31.495c-61.454,104.259-48.624,194.791-9.378,214.486
	C-2014.647,551.582-1823.747,432.459-1765.722,364.345z"/>
<path fill-rule="evenodd" clip-rule="evenodd" fill="#F3AD16" d="M-1849.475,433.572c7.095-4.058,13.267-6.396,16.836-6.31
	c5.908,0.142,11.542,8.191,10.348,11.665c-1.146,3.336-8.157,5.78-18.552,8.968l31.053-0.621l22.139-12.317
	c-15.444,3.962-19.869,1.508-25.798-6.458c-5.146-6.913-8.231-15.28,6.439-26.705l-35.855,1.46L-1849.475,433.572z"/>
<path fill-rule="evenodd" clip-rule="evenodd" fill="#F3AD16" d="M-2029.848,453.197c-19.549-23.261-57.926-3.932-41.328,12.939
	l-24.576-12.813l-2.338-27.198c3.262,11.275,16.205,12.571,23.065,11.135c5.269-1.103,9.455-2.464,12.846-4.149
	c10.303-5.122,9.678-14.39,7.053-22.723l19.225,5.383L-2029.848,453.197z"/>
<path fill-rule="evenodd" clip-rule="evenodd" fill="#F3AD16" d="M-2056.645,407.117c-4.742-11.864-15.667-14.549-25.408-13.444
	c-9.515,1.078-17.656,5.179-18.103,16.573l-7.242-13.6l8.523-21.862c0.312,4.238,2.344,7.61,6.185,9.54
	c4.397,2.209,8.38,1.787,15.125-0.551c10.45-3.622,13.776-14.092,14.414-24.358l12.185,14.535L-2056.645,407.117z"/>
<path fill-rule="evenodd" clip-rule="evenodd" fill="#F3AD16" d="M-1805.2,400.231c13.399-8.207,20.982-3.087,27.192,3.75
	c7.578,8.342,14.245,22.917-2.119,28.72l24.95-5.688l31.377-16.986c-15.414,4.974-36.427-2.607-42.355-10.572
	c-5.146-6.913-14.854-22.724-1.371-34.976l-26.329,11.931L-1805.2,400.231z"/>
<path fill-rule="evenodd" clip-rule="evenodd" fill="#6B9A38" stroke="#FFFFFF" stroke-width="2.8346" stroke-miterlimit="22.9256" d="
	M-1812.895,145.562l-23.88,7.186l-11.87,29.023c46.319,29.549,109.87,92.929,134.075,146.448
	c35.532,78.564,11.067,161.088-71.896,198.687c47.577-11.521,79.694-30.034,101.608-51.968
	C-1590.834,380.827-1706.126,212.236-1812.895,145.562z"/>
<path fill-rule="evenodd" clip-rule="evenodd" fill="#6B9A38" stroke="#FFFFFF" stroke-width="2.8346" stroke-miterlimit="22.9256" d="
	M-1865.357,240.258l-14.254,42.874c130.629,50.183,425.711,186.693,115.383,262.838c121.018,1.092,193.005-55.285,190.439-99.121
	C-1578.742,362.215-1777.356,256.451-1865.357,240.258z"/>
<path fill-rule="evenodd" clip-rule="evenodd" fill="#6B9A38" d="M-1763.527,278.176c-7.063-4.115-12.173-8.291-13.883-11.425
	c-2.83-5.188,1.323-14.092,4.929-14.795c3.462-0.675,9.084,4.174,17.042,11.582l-16.064-26.581l-21.737-13.015
	c11.153,11.395,11.24,16.454,7.306,25.571c-3.414,7.913-9.117,14.769-26.347,7.775l19.192,30.322L-1763.527,278.176z"/>
<path fill-rule="evenodd" clip-rule="evenodd" fill="#6B9A38" d="M-1656.346,424.571c-10.37,28.56,25.558,52.131,31.87,29.321
	l1.191,27.689l-22.385,15.624c8.133-8.463,2.784-20.319-1.889-25.542c-3.589-4.012-6.862-6.956-10.017-9.05
	c-9.587-6.362-17.301-1.188-23.205,5.253l-4.951-19.341L-1656.346,424.571z"/>
<path fill-rule="evenodd" clip-rule="evenodd" fill="#6B9A38" d="M-1682.854,470.818c-7.903,10.039-4.765,20.843,1.061,28.727
	c5.692,7.701,13.313,12.7,23.405,7.391l-8.157,13.071l-23.194,3.55c3.514-2.389,5.418-5.834,5.169-10.126
	c-0.286-4.913-2.643-8.151-8.039-12.823c-8.363-7.238-19.092-4.884-28.302-0.304l6.496-17.819L-1682.854,470.818z"/>
<path fill-rule="evenodd" clip-rule="evenodd" fill="#6B9A38" d="M-1814.539,256.503c-13.808-7.5-13.164-16.627-10.349-25.424
	c3.436-10.734,12.724-23.795,25.932-12.525l-17.401-18.763l-30.399-18.68c12.014,10.861,15.955,32.85,12.022,41.966
	c-3.414,7.913-12.252,24.227-29.605,18.676l23.497,16.836L-1814.539,256.503z"/>
<path fill-rule="evenodd" clip-rule="evenodd" fill="#D62251" stroke="#FFFFFF" stroke-width="2.8346" stroke-miterlimit="22.9256" d="
	M-2034.82,381.677c7.21,10.874,12.138,17.15,21.521,27.262l27.208-3.705c2.43-54.889,25.543-141.614,59.79-189.337
	c50.272-70.054,133.973-90.128,208.016-37.079c-33.766-35.442-65.857-54-95.81-62.011c-117.719-31.486-201.746,120.378-218.38,242.8
	C-2034,370.832-2034.454,371.11-2034.82,381.677z"/>
<path fill-rule="evenodd" clip-rule="evenodd" fill="#D62251" stroke="#FFFFFF" stroke-width="2.8346" stroke-miterlimit="22.9256" d="
	M-1927.084,390.462l44.257-9.093c-21.855-138.219-51.174-462.023,169.933-231.343c-59.563-105.351-144.382-139.506-181.062-115.365
	C-1964.774,81.268-1957.061,306.154-1927.084,390.462z"/>
<path fill-rule="evenodd" clip-rule="evenodd" fill="#D62251" d="M-1945.161,283.316c-0.033,8.174-1.094,14.688-2.953,17.735
	c-3.077,5.045-12.865,5.9-15.277,3.129c-2.315-2.661-0.927-9.954,1.51-20.55l-14.989,27.203l-0.402,25.331
	c4.291-15.355,8.629-17.961,18.492-19.112c8.56-1,17.349,0.512,19.908,18.929l16.663-31.781L-1945.161,283.316z"/>
<path fill-rule="evenodd" clip-rule="evenodd" fill="#D62251" stroke="#EFA021" stroke-width="0.216" stroke-miterlimit="22.9256" d="
	M-1871.97,117.296c29.918-5.299,32.368-48.199,9.458-42.26l23.385-14.877l24.724,11.574c-11.396-2.813-18.99,7.749-21.176,14.407
	c-1.679,5.114-2.593,9.421-2.829,13.2c-0.716,11.484,7.622,15.576,16.151,17.469l-14.274,13.958L-1871.97,117.296z"/>
<path fill-rule="evenodd" clip-rule="evenodd" fill="#D62251" d="M-1818.665,117.13c12.646,1.824,20.433-6.295,24.347-15.282
	c3.824-8.78,4.343-17.88-5.302-23.965l15.399,0.528l14.672,18.313c-3.826-1.85-7.763-1.775-11.354,0.587
	c-4.112,2.703-5.738,6.363-7.085,13.373c-2.088,10.861,5.315,18.976,13.887,24.662l-18.68,3.285L-1818.665,117.13z"/>
<path fill-rule="evenodd" clip-rule="evenodd" fill="#D62251" d="M-1938.424,338.33c0.408,15.708-7.818,19.714-16.844,21.675
	c-11.014,2.392-26.969,0.878-23.813-16.195l-7.549,24.45l-0.978,35.666c3.399-15.835,20.471-30.242,30.333-31.395
	c8.56-0.999,27.106-1.502,30.976,16.302l2.833-28.767L-1938.424,338.33z"/>
<text transform="matrix(1 0 0 1 -1594.0664 395.0176)"><tspan x="0" y="0" fill="#FFFF00" font-family="'MicraDi'" font-size="250">WG</tspan><tspan x="556.125" y="0" fill="#FFFFFF" font-family="'MicraDi'" font-size="250">Lab</tspan></text>
<text transform="matrix(1 0 0 1 56.48 645.2529)"><tspan x="0" y="0" fill="#2492FF" font-family="'MicraDi'" font-size="120">WG</tspan><tspan x="266.94" y="0" fill="#2B2A29" font-family="'MicraDi'" font-size="120">Lab</tspan></text>
<path fill-rule="evenodd" clip-rule="evenodd" fill="#F3AD16" stroke="#FFFFFF" stroke-width="2.8346" stroke-miterlimit="22.9256" d="
	M465.292,439.392l5.717-24.274l-19.199-24.792c-48.75,25.34-135.414,48.687-193.866,42.889
	c-85.805-8.51-145.04-70.959-136.12-161.607c-13.811,46.964-13.836,84.035-5.798,113.979
	C150.516,514.068,354.166,498.519,465.292,439.392z"/>
<path fill-rule="evenodd" clip-rule="evenodd" fill="#F3AD16" stroke="#FFFFFF" stroke-width="2.8346" stroke-miterlimit="22.9256" d="
	M409.514,346.609l-30.003-33.781C270.737,400.865,4.973,588.158,94.194,281.333C32.74,385.592,45.57,476.124,84.816,495.819
	C160.588,533.847,351.489,414.724,409.514,346.609z"/>
<path fill-rule="evenodd" clip-rule="evenodd" fill="#F3AD16" d="M325.761,415.837c7.095-4.058,13.267-6.396,16.836-6.31
	c5.908,0.142,11.542,8.191,10.348,11.665c-1.146,3.336-8.157,5.78-18.552,8.968l31.053-0.621l22.139-12.317
	c-15.444,3.962-19.869,1.508-25.798-6.458c-5.146-6.913-8.231-15.28,6.439-26.705l-35.855,1.46L325.761,415.837z"/>
<path fill-rule="evenodd" clip-rule="evenodd" fill="#F3AD16" d="M145.388,435.462c-19.549-23.261-57.926-3.932-41.328,12.939
	l-24.576-12.813l-2.338-27.198c3.262,11.275,16.205,12.571,23.065,11.135c5.269-1.103,9.455-2.464,12.846-4.149
	c10.303-5.122,9.678-14.39,7.053-22.723l19.225,5.383L145.388,435.462z"/>
<path fill-rule="evenodd" clip-rule="evenodd" fill="#F3AD16" d="M118.59,389.382c-4.742-11.864-15.667-14.549-25.408-13.444
	c-9.515,1.078-17.656,5.179-18.103,16.573l-7.242-13.6l8.523-21.862c0.312,4.238,2.344,7.61,6.185,9.54
	c4.397,2.209,8.38,1.787,15.125-0.551c10.45-3.622,13.776-14.092,14.414-24.358l12.185,14.535L118.59,389.382z"/>
<path fill-rule="evenodd" clip-rule="evenodd" fill="#F3AD16" d="M370.036,382.496c13.399-8.207,20.982-3.087,27.192,3.75
	c7.578,8.342,14.246,22.917-2.119,28.72l24.95-5.688l31.377-16.986c-15.414,4.974-36.427-2.607-42.354-10.572
	c-5.146-6.913-14.854-22.724-1.371-34.976l-26.329,11.931L370.036,382.496z"/>
<path fill-rule="evenodd" clip-rule="evenodd" fill="#6B9A38" stroke="#FFFFFF" stroke-width="2.8346" stroke-miterlimit="22.9256" d="
	M362.34,127.826l-23.88,7.186l-11.87,29.023c46.319,29.549,109.87,92.929,134.075,146.448
	c35.532,78.564,11.067,161.088-71.896,198.687c47.577-11.521,79.694-30.034,101.607-51.968
	C584.401,363.092,469.109,194.501,362.34,127.826z"/>
<path fill-rule="evenodd" clip-rule="evenodd" fill="#6B9A38" stroke="#FFFFFF" stroke-width="2.8346" stroke-miterlimit="22.9256" d="
	M309.878,222.522l-14.254,42.874c130.628,50.183,425.711,186.693,115.382,262.838c121.018,1.092,193.006-55.285,190.439-99.121
	C596.493,344.479,397.879,238.716,309.878,222.522z"/>
<path fill-rule="evenodd" clip-rule="evenodd" fill="#6B9A38" d="M411.708,260.44c-7.063-4.115-12.173-8.291-13.883-11.425
	c-2.83-5.188,1.323-14.092,4.929-14.795c3.462-0.675,9.084,4.174,17.042,11.582l-16.064-26.581l-21.737-13.015
	c11.153,11.395,11.24,16.454,7.306,25.571c-3.414,7.913-9.117,14.769-26.347,7.775l19.192,30.322L411.708,260.44z"/>
<path fill-rule="evenodd" clip-rule="evenodd" fill="#6B9A38" d="M518.89,406.836c-10.369,28.56,25.558,52.131,31.869,29.321
	l1.191,27.689l-22.385,15.624c8.133-8.463,2.784-20.319-1.889-25.542c-3.59-4.012-6.862-6.956-10.018-9.05
	c-9.588-6.362-17.301-1.188-23.205,5.253l-4.95-19.341L518.89,406.836z"/>
<path fill-rule="evenodd" clip-rule="evenodd" fill="#6B9A38" d="M492.382,453.083c-7.903,10.039-4.766,20.843,1.061,28.727
	c5.692,7.701,13.313,12.7,23.404,7.391l-8.156,13.071l-23.194,3.55c3.515-2.389,5.419-5.834,5.169-10.126
	c-0.286-4.913-2.643-8.151-8.039-12.823c-8.363-7.238-19.092-4.884-28.303-0.304l6.496-17.819L492.382,453.083z"/>
<path fill-rule="evenodd" clip-rule="evenodd" fill="#6B9A38" d="M360.696,238.768c-13.808-7.5-13.164-16.627-10.349-25.424
	c3.436-10.734,12.724-23.795,25.932-12.525l-17.401-18.763l-30.399-18.68c12.014,10.861,15.955,32.85,12.022,41.966
	c-3.414,7.913-12.252,24.227-29.605,18.676l23.497,16.836L360.696,238.768z"/>
<path fill-rule="evenodd" clip-rule="evenodd" fill="#D62251" stroke="#FFFFFF" stroke-width="2.8346" stroke-miterlimit="22.9256" d="
	M140.415,363.941c7.21,10.874,12.138,17.15,21.521,27.262l27.208-3.705c2.43-54.889,25.543-141.614,59.79-189.337
	c50.272-70.054,133.973-90.128,208.016-37.079c-33.766-35.442-65.858-54-95.81-62.011c-117.719-31.486-201.746,120.378-218.38,242.8
	C141.235,353.097,140.781,353.375,140.415,363.941z"/>
<path fill-rule="evenodd" clip-rule="evenodd" fill="#D62251" stroke="#FFFFFF" stroke-width="2.8346" stroke-miterlimit="22.9256" d="
	M248.151,372.727l44.257-9.093C270.553,225.415,241.234-98.39,462.341,132.291C402.778,26.94,317.959-7.215,281.28,16.926
	C210.461,63.532,218.175,288.419,248.151,372.727z"/>
<path fill-rule="evenodd" clip-rule="evenodd" fill="#D62251" d="M230.074,265.581c-0.033,8.174-1.094,14.688-2.953,17.735
	c-3.077,5.045-12.865,5.9-15.277,3.129c-2.315-2.661-0.927-9.954,1.51-20.55l-14.989,27.203l-0.402,25.331
	c4.291-15.355,8.629-17.961,18.492-19.112c8.56-1,17.349,0.512,19.908,18.929l16.663-31.781L230.074,265.581z"/>
<path fill-rule="evenodd" clip-rule="evenodd" fill="#D62251" stroke="#EFA021" stroke-width="0.216" stroke-miterlimit="22.9256" d="
	M303.266,99.561c29.918-5.299,32.368-48.199,9.458-42.26l23.385-14.877l24.724,11.574c-11.396-2.813-18.99,7.749-21.176,14.407
	c-1.679,5.114-2.593,9.421-2.829,13.2c-0.716,11.484,7.622,15.576,16.151,17.469l-14.274,13.958L303.266,99.561z"/>
<path fill-rule="evenodd" clip-rule="evenodd" fill="#D62251" d="M356.571,99.395c12.646,1.824,20.433-6.295,24.347-15.282
	c3.824-8.78,4.343-17.88-5.302-23.965l15.399,0.528l14.671,18.313c-3.826-1.85-7.762-1.775-11.354,0.587
	c-4.112,2.703-5.738,6.363-7.085,13.373c-2.088,10.861,5.315,18.976,13.887,24.662l-18.68,3.285L356.571,99.395z"/>
<path fill-rule="evenodd" clip-rule="evenodd" fill="#D62251" d="M236.812,320.595c0.408,15.708-7.818,19.714-16.844,21.675
	c-11.014,2.392-26.969,0.878-23.813-16.195l-7.549,24.45l-0.978,35.666c3.399-15.835,20.471-30.242,30.333-31.395
	c8.56-0.999,27.106-1.502,30.976,16.302l2.833-28.767L236.812,320.595z"/>
</svg>
