<?xml version="1.0" encoding="utf-8"?>
<!-- Generator: Adobe Illustrator 16.0.0, SVG Export Plug-In . SVG Version: 6.00 Build 0)  -->
<!DOCTYPE svg PUBLIC "-//W3C//DTD SVG 1.1//EN" "http://www.w3.org/Graphics/SVG/1.1/DTD/svg11.dtd">
<svg version="1.1" id="Layer_1" xmlns="http://www.w3.org/2000/svg" xmlns:xlink="http://www.w3.org/1999/xlink" x="0px" y="0px"
	 width="662.937px" height="755.658px" viewBox="0 0 662.937 755.658" enable-background="new 0 0 662.937 755.658"
	 xml:space="preserve">
<path fill-rule="evenodd" clip-rule="evenodd" fill="#669999" stroke="#FFFFFF" stroke-width="2.8346" stroke-miterlimit="22.9256" d="
	M106.56,432.016c8.76,13.212,14.747,20.838,26.147,33.123l33.776-15.893c2.952-66.689,30.317-160.671,71.927-218.653
	c61.081-85.115,162.777-109.506,252.739-45.051c-41.025-43.063-80.017-65.61-116.408-75.344
	c-143.029-38.255-245.122,146.26-265.332,295.003C107.557,418.84,107.005,419.177,106.56,432.016z"/>
<path fill-rule="evenodd" clip-rule="evenodd" fill="#99CCCC" stroke="#FFFFFF" stroke-width="2.8346" stroke-miterlimit="22.9256" d="
	M237.459,442.69l26.916-5.53l22.956-24.718C260.776,244.507,229.055-129.717,497.7,150.56
	c-72.369-128-175.424-169.498-219.99-140.168C191.666,67.019,201.038,340.256,237.459,442.69z"/>
<path fill-rule="evenodd" clip-rule="evenodd" fill="#4E9C9C" d="M223.24,386.931c-2.048,12.889-10.683,16.725-20.024,18.754
	c-10.978,2.383-25.992,1.571-28.917-10.25c-4.028,20.017-6.483,34.998-7.735,52.094c6.961-16.164,23.776-25.404,34.215-26.624
	c8.184-0.956,23.88-1.534,32.488,8.802C229.542,417.121,226.17,402.706,223.24,386.931L223.24,386.931z M315.998,106.718
	c22.239-12.387,24.245-45.06,7.242-47.768c11.861-6.512,26.273-8.191,43.654-3.83c-9.685,1.666-16.112,11.287-18.257,17.819
	c-2.041,6.214-3.151,11.446-3.438,16.038c-0.543,8.712,3.202,13.922,8.615,17.168C340.823,104.575,328.205,104.829,315.998,106.718
	L315.998,106.718z M376.628,110.715c11.054-1.347,18.209-9.657,22.143-18.691c3.688-8.47,4.845-17.183-0.698-24.114
	c8.069,4.409,16.639,9.87,25.703,16.387c-2.977-0.313-5.926,0.387-8.706,2.214c-4.995,3.285-6.972,7.732-8.608,16.249
	c-1.805,9.387,2.227,17.084,8.452,23.233C401.864,119.183,389.095,114.193,376.628,110.715L376.628,110.715z M214.692,324.595
	c-0.609,4.17-1.553,7.442-2.784,9.462c-3.739,6.13-15.632,7.169-18.562,3.801c-1.568-1.801-1.738-5.351-1.069-10.368
	c-3.872,11.721-7.373,23.63-10.47,35.485c4.02-6.781,9.05-8.532,17.142-9.478c7.659-0.895,15.469-0.133,20.296,9.269
	C217.463,350.554,215.937,337.763,214.692,324.595z"/>
<path fill-rule="evenodd" clip-rule="evenodd" fill="#99CCCC" d="M-2002.429,644.821h0.006c0.063-0.002,0.127-0.003,0.192-0.003
	c2.679,0,4.978,1.625,5.966,3.942l0,0l16.717,32.794l16.51-32.403v0.001c0.887-2.524,3.291-4.334,6.118-4.334
	c3.581,0,6.483,2.903,6.483,6.483c0,0.938-0.2,1.83-0.558,2.635v0.001l-0.002,0.004c-0.091,0.204-0.192,0.401-0.302,0.593
	l-22.271,43.731c-0.978,2.343-3.289,3.989-5.986,3.989c-2.237,0-4.209-1.133-5.374-2.855l0-0.001
	c-0.294-0.435-0.536-0.906-0.719-1.407l-16.668-32.636l-16.762,32.913c-0.977,2.343-3.289,3.988-5.986,3.988
	c-2.236,0-4.208-1.132-5.374-2.854l0-0.001c-0.294-0.434-0.536-0.906-0.719-1.407l-22.148-43.364
	c-0.148-0.248-0.281-0.508-0.396-0.776l-0.002-0.003h0c-0.334-0.781-0.52-1.643-0.52-2.546c0-3.581,2.903-6.483,6.483-6.483
	c2.679,0,4.979,1.625,5.967,3.942l0,0l16.717,32.794l16.509-32.402h0C-2007.661,646.631-2005.257,644.821-2002.429,644.821
	L-2002.429,644.821z M-1797.4,644.821c3.58,0,6.483,2.902,6.483,6.483v19.255c0.657-2.885,3.237-5.039,6.322-5.039h30.993
	c8.48,0,14.379,3.408,15.494,11.523c0.038,0.238,0.066,0.474,0.084,0.705l0.003,0.046c0.278,2.824,0.145,5.868,0.174,8.716
	c0,16.086-16.241,15.707-28.665,15.611c-8.244-0.063-4.126-0.047-8.019-0.047c-19.708,0-27.655,0.462-29.147-12.544l-0.207,0.003
	v-2.619c-0.051-1.063-0.07-2.203-0.059-3.423l0.059-6.315v-25.872C-1803.884,647.724-1800.981,644.821-1797.4,644.821
	L-1797.4,644.821z M-1790.917,673.448v5.532v10.32h40.104v-5.688v-5.126h-33.783
	C-1787.68,678.487-1790.261,676.334-1790.917,673.448L-1790.917,673.448z M-1940.63,644.821c3.581,0,6.483,2.902,6.483,6.483v37.996
	c9.839-0.002,51.368-4.877,51.368,6.474c0,3.58-2.902,6.482-6.483,6.482c-17.123-0.13-34.246-0.108-51.368-0.108
	c-0.193,0-0.384-0.009-0.573-0.025c-3.349-0.312-5.91-3.086-5.91-6.458v-44.36C-1947.113,647.724-1944.21,644.821-1940.63,644.821
	L-1940.63,644.821z M-1864.848,678.487h28.958c3.581,0,6.483-2.902,6.483-6.482c0-3.581-2.902-6.484-6.483-6.484h-26.168
	c-8.48,0-14.379,3.408-15.494,11.523c-0.038,0.238-0.066,0.474-0.084,0.705l-0.004,0.046c-0.277,2.824-0.144,5.868-0.174,8.716
	c0,16.086,16.241,15.707,28.665,15.611c8.244-0.063,4.126-0.047,8.019-0.047c24.591,0,30.183,0.721,29.354-24.898v-20.821
	c0-8.493-7.866-11.534-15.152-11.534h-17.229c-3.581,0-6.483,2.902-6.483,6.483s2.903,6.483,6.483,6.483h19.415v31.513h-40.104
	v-5.688V678.487z"/>
<path fill-rule="evenodd" clip-rule="evenodd" fill="#669999" stroke="#FFFFFF" stroke-width="2.8346" stroke-miterlimit="22.9256" d="
	M-2118.743,432.016c8.759,13.212,14.747,20.838,26.147,33.123l33.058-4.502c2.953-66.689,31.035-172.062,72.645-230.044
	c61.081-85.115,162.777-109.506,252.739-45.051c-41.025-43.063-80.017-65.61-116.408-75.344
	c-143.029-38.255-245.121,146.26-265.332,295.003C-2117.747,418.84-2118.299,419.177-2118.743,432.016z"/>
<path fill-rule="evenodd" clip-rule="evenodd" fill="#99CCCC" stroke="#FFFFFF" stroke-width="2.8346" stroke-miterlimit="22.9256" d="
	M-1987.845,442.69l53.772-11.048c-26.554-167.937-62.177-561.359,206.469-281.083c-72.37-128-175.424-169.498-219.99-140.168
	C-2033.637,67.019-2024.266,340.256-1987.845,442.69z"/>
<path fill-rule="evenodd" clip-rule="evenodd" fill="#56802C" stroke="#FFFFFF" stroke-width="2.8346" stroke-miterlimit="22.9256" d="
	M-1724.019,523.688l6.946-29.493l-23.328-30.122c-59.23,30.788-164.527,59.154-235.546,52.11
	c-104.253-10.34-176.224-86.217-165.385-196.354c-16.781,57.061-16.812,102.102-7.045,138.484
	C-2106.472,614.42-1859.037,595.527-1724.019,523.688z"/>
<path fill-rule="evenodd" clip-rule="evenodd" fill="#669933" stroke="#FFFFFF" stroke-width="2.8346" stroke-miterlimit="22.9256" d="
	M-1791.789,410.958l-36.454-41.045c-132.16,106.965-455.063,334.526-346.659-38.266c-74.667,126.674-59.078,236.67-11.394,260.601
	C-2094.233,638.45-1862.289,493.716-1791.789,410.958z"/>
<path fill-rule="evenodd" clip-rule="evenodd" fill="#DC5800" stroke="#FFFFFF" stroke-width="2.8346" stroke-miterlimit="22.9256" d="
	M-1849.104,145.136l-29.015,8.73l-14.422,35.264c56.278,35.902,133.493,112.908,162.902,177.934
	c43.171,95.456,13.446,195.723-87.354,241.404c57.806-13.997,96.828-36.491,123.454-63.141
	C-1579.301,430.983-1719.38,226.146-1849.104,145.136z"/>
<path fill-rule="evenodd" clip-rule="evenodd" fill="#EA6100" stroke="#FFFFFF" stroke-width="2.8346" stroke-miterlimit="22.9256" d="
	M-1912.846,260.191l-17.318,52.093c158.714,60.971,517.239,226.832,140.19,319.348c147.036,1.326,234.502-67.172,231.384-120.433
	C-1564.609,408.37-1805.925,279.867-1912.846,260.191z"/>
<path fill-rule="evenodd" clip-rule="evenodd" fill="#4E9C9C" d="M-2002.063,386.931c-2.047,12.889-10.682,16.725-20.023,18.754
	c-10.978,2.383-25.993,1.571-28.918-10.25c-4.028,20.017-6.752,39.2-8.004,56.295c6.96-16.163,24.045-29.605,34.483-30.825
	c8.185-0.956,23.88-1.534,32.489,8.802C-1995.761,417.121-1999.134,402.706-2002.063,386.931L-2002.063,386.931z M-1909.306,106.718
	c22.24-12.387,24.246-45.06,7.243-47.768c11.861-6.512,26.273-8.191,43.654-3.83c-9.684,1.666-16.112,11.287-18.257,17.819
	c-2.041,6.214-3.151,11.446-3.437,16.038c-0.543,8.712,3.202,13.922,8.615,17.168
	C-1884.48,104.575-1897.098,104.829-1909.306,106.718L-1909.306,106.718z M-1848.675,110.715
	c11.053-1.347,18.208-9.657,22.142-18.691c3.688-8.47,4.845-17.183-0.698-24.114c8.069,4.409,16.638,9.87,25.703,16.387
	c-2.977-0.313-5.926,0.387-8.705,2.214c-4.996,3.285-6.972,7.732-8.609,16.249c-1.804,9.387,2.227,17.084,8.453,23.233
	C-1823.439,119.183-1836.208,114.193-1848.675,110.715L-1848.675,110.715z M-2010.61,324.595c-0.61,4.17-1.553,7.442-2.785,9.462
	c-3.739,6.13-15.631,7.169-18.562,3.801c-1.567-1.801-1.738-5.351-1.068-10.368c-3.873,11.721-7.374,23.63-10.471,35.485
	c4.02-6.781,9.05-8.532,17.142-9.478c7.659-0.895,15.469-0.133,20.296,9.269C-2007.84,350.554-2009.367,337.763-2010.61,324.595z"/>
<path fill-rule="evenodd" clip-rule="evenodd" fill="#799A37" d="M-2121.963,510.963c-21.854-13.125-51.208,1.482-45.052,17.572
	c-11.566-7.017-20.225-18.657-25.137-35.887c6.284,7.554,17.831,8.31,24.56,6.901c6.402-1.34,11.488-2.994,15.608-5.043
	c7.812-3.883,10.453-9.727,10.56-16.033C-2136.275,490.523-2129.719,501.324-2121.963,510.963L-2121.963,510.963z
	 M-1832.968,451.151c12.186-4.672,19.824,0.889,26.252,7.965c7.554,8.314,14.357,21.725,5.583,30.168
	c19.349-6.521,37.324-13.753,52.755-21.217c-17.479,2.055-37.662-6.021-43.937-14.45c-4.92-6.61-13.269-19.914-8.622-32.537
	C-1809.975,430.598-1820.771,440.727-1832.968,451.151L-1832.968,451.151z M-1882.68,489.721c3.916-1.557,7.222-2.376,9.587-2.318
	c7.177,0.173,14.024,9.952,12.573,14.174c-0.777,2.259-3.766,4.181-8.447,6.11c12.087-2.507,24.152-5.43,35.967-8.676
	c-7.882-0.09-11.914-3.571-16.778-10.105c-4.604-6.188-7.85-13.331-2.121-22.212C-1861.583,474.342-1871.897,482.06-1882.68,489.721
	L-1882.68,489.721z M-2148.873,456.421c-6.693-8.899-17.468-10.939-27.259-9.83c-9.179,1.041-17.303,4.396-20.535,12.662
	c-0.216-9.193,0.229-19.344,1.34-30.452c1.217,2.734,3.298,4.938,6.271,6.432c5.343,2.684,10.182,2.171,18.376-0.669
	c9.032-3.131,13.682-10.471,15.895-18.937C-2154.157,430.333-2152.094,443.886-2148.873,456.421z"/>
<path fill-rule="evenodd" clip-rule="evenodd" fill="#FF6600" d="M-1857.447,275.757c-10.139-8.217-9.143-17.613-6.229-26.717
	c3.424-10.699,11.635-23.297,23.334-19.919c-15.321-13.497-30.572-25.448-44.75-35.079c10.518,14.109,13.617,35.626,9.454,45.275
	c-3.264,7.566-10.611,21.448-23.867,23.736C-1886.744,266.121-1872.573,270.407-1857.447,275.757L-1857.447,275.757z
	 M-1661.151,496.127c-0.441,25.489,26.887,43.607,37.744,30.23c-0.293,13.526-6.045,26.844-18.51,39.713
	c3.399-9.22-1.719-19.597-6.304-24.72c-4.361-4.875-8.337-8.452-12.17-10.996c-7.269-4.823-13.651-4.189-19.165-1.129
	C-1671.696,518.741-1665.621,507.663-1661.151,496.127L-1661.151,496.127z M-1694.931,546.703
	c-9.246,9.058-19.951,17.621-32.373,25.517c8.438-2.316,17.119-1.959,24.346,4.297c6.557,5.677,9.42,9.611,9.767,15.58
	c0.193,3.321-0.676,6.226-2.435,8.646c10.176-4.592,19.189-9.283,27.042-14.065c-8.774,1.335-15.742-4.024-21.233-11.452
	C-1695.672,567.301-1699.292,556.948-1694.931,546.703L-1694.931,546.703z M-1799.19,299.522c-3.305-2.612-5.667-5.065-6.8-7.143
	c-3.439-6.302,1.607-17.121,5.988-17.975c2.344-0.457,5.504,1.171,9.515,4.26c-8.215-9.215-16.778-18.201-25.497-26.812
	c3.863,6.872,2.865,12.104-0.363,19.584c-3.055,7.081-7.62,13.464-18.176,12.942
	C-1823.057,288.942-1811.216,294.016-1799.19,299.522z"/>
<path fill-rule="evenodd" clip-rule="evenodd" fill="none" stroke="#FFFFFF" stroke-width="4.252" stroke-miterlimit="22.9256" d="
	M271.986,172.746c-9.545,58.069-14.485,143.761-7.642,264.42"/>
<path fill-rule="evenodd" clip-rule="evenodd" fill="none" stroke="#FFFFFF" stroke-width="4.252" stroke-miterlimit="22.9256" d="
	M210.942,251.344c-31.612,49.979-48.588,111.323-72.613,212.639"/>
<path fill-rule="evenodd" clip-rule="evenodd" fill="#56802C" stroke="#FFFFFF" stroke-width="2.8346" stroke-miterlimit="22.9256" d="
	M493.695,518.524c6.233-14.575,9.319-23.767,13.329-40.039l-31.827-19.506c-57.36,34.146-150.936,62.873-222.241,59.928
	c-104.676-4.321-180.895-75.93-176.414-186.508c-13.468,57.933-10.906,102.9,0.938,138.661
	c46.552,140.548,256.821,124.575,392.238,59.804C482.136,524.925,482.721,525.201,493.695,518.524z"/>
<path fill-rule="evenodd" clip-rule="evenodd" fill="#669933" stroke="#FFFFFF" stroke-width="2.8346" stroke-miterlimit="22.9256" d="
	M430.751,403.257l-19.399-19.46l-33.263-5.617C252.305,492.575-43.058,724.544,43.708,346.13
	c-67.252,130.763-45.357,239.68,3.625,260.825C141.902,647.782,365.131,489.937,430.751,403.257z"/>
<path fill-rule="evenodd" clip-rule="evenodd" fill="#799A37" d="M391.953,445.754c11.896-5.364,19.843-0.253,26.667,6.44
	c8.021,7.867,15.585,20.862,7.311,29.797c18.941-7.623,32.811-13.797,47.786-22.136c-17.331,3.057-34.286-5.925-41.036-13.979
	c-5.292-6.315-14.394-19.117-10.48-31.987C413.726,423.911,403.529,434.645,391.953,445.754L391.953,445.754z M106.822,522.069
	c-22.563-11.787-50.973,4.474-43.9,20.172c-11.955-6.339-21.271-17.462-27.168-34.384c6.709,7.179,18.279,7.271,24.917,5.477
	c6.313-1.706,11.296-3.65,15.291-5.933c7.58-4.329,9.879-10.32,9.62-16.626C91.402,502.496,98.542,512.903,106.822,522.069
	L106.822,522.069z M76.876,469.199c-7.193-8.499-18.069-9.917-27.779-8.245c-9.104,1.567-17.021,5.385-19.771,13.823
	c-0.744-9.165-0.886-19.325-0.415-30.479c1.373,2.659,3.576,4.741,6.63,6.061c5.488,2.372,10.291,1.582,18.308-1.726
	c8.836-3.646,13.057-11.24,14.777-19.819C70.099,443.458,72.938,456.87,76.876,469.199L76.876,469.199z M344.545,487.122
	c10.323-8.27,20.175-16.567,29.404-24.762c-5.208,9.196-1.557,16.142,3.396,22.053c5.232,6.244,9.458,9.487,17.333,9.124
	c-11.609,3.92-23.485,7.532-35.407,10.73c4.561-2.195,7.434-4.286,8.079-6.586c1.206-4.298-6.192-13.667-13.367-13.427
	C351.617,484.334,348.364,485.343,344.545,487.122z"/>
<path fill-rule="evenodd" clip-rule="evenodd" fill="none" stroke="#FFFFFF" stroke-width="4.252" stroke-miterlimit="22.9256" d="
	M188.298,521.654c53.603-24.085,127.256-66.814,223.074-137.836"/>
<path fill-rule="evenodd" clip-rule="evenodd" fill="none" stroke="#FFFFFF" stroke-width="4.252" stroke-miterlimit="22.9256" d="
	M285.38,530.473c59.129-1.019,119.721-20.509,217.591-56.052"/>
<path fill-rule="evenodd" clip-rule="evenodd" fill="#DC5800" stroke="#FFFFFF" stroke-width="2.8346" stroke-miterlimit="22.9256" d="
	M374.299,151.871c-15.797,1.313-25.364,2.888-41.622,6.962l-2.339,37.255c57.022,34.707,126.207,103.953,156.98,168.345
	c45.175,94.523,17.57,195.395-82.244,243.191c57.498-15.213,96.037-38.524,122.095-65.729
	c102.412-106.923-10.121-285.261-130.742-374.611C385.366,159.09,385.336,158.444,374.299,151.871z"/>
<path fill-rule="evenodd" clip-rule="evenodd" fill="#EA6100" stroke="#FFFFFF" stroke-width="2.8346" stroke-miterlimit="22.9256" d="
	M301.899,261.446l-8.117,26.252l10.605,32.023c159.965,57.611,503.203,210.047,128.188,310.492
	c147.032-1.774,233.033-72.103,228.793-125.285C653.184,402.249,409.212,278.863,301.899,261.446z"/>
<path fill-rule="evenodd" clip-rule="evenodd" fill="#FF6600" d="M357.613,275.841c-10.309-8.002-9.511-17.416-6.79-26.58
	c3.197-10.77,11.142-23.537,22.91-20.406c-15.603-13.171-27.55-22.538-41.93-31.869c10.813,13.885,10.813,33.072,6.854,42.808
	c-3.104,7.633-10.156,21.667-23.361,24.233C328.121,266.823,342.378,270.811,357.613,275.841L357.613,275.841z M558.512,492.09
	c0.144,25.456,27.812,42.95,38.374,29.354c-0.006,13.531-5.476,26.97-17.669,40.102c3.204-9.289-2.132-19.557-6.823-24.582
	c-4.463-4.781-8.514-8.274-12.399-10.736c-7.373-4.672-13.744-3.899-19.195-0.719C548.433,514.878,554.287,503.698,558.512,492.09
	L558.512,492.09z M525.807,543.3c-9.052,9.25-19.575,18.038-31.827,26.193c8.387-2.494,17.074-2.319,24.432,3.783
	c6.675,5.536,9.621,9.41,10.094,15.37c0.264,3.316-0.545,6.237-2.253,8.695c10.078-4.805,18.99-9.685,26.741-14.633
	c-8.744,1.521-15.824-3.69-21.47-11.001C525.501,563.909,521.663,553.636,525.807,543.3L525.807,543.3z M416.36,298.373
	c-3.36-2.543-5.774-4.945-6.951-6.998c-3.571-6.229,1.246-17.151,5.608-18.097c2.334-0.507,5.526,1.054,9.602,4.057
	c-8.407-9.039-17.157-17.844-26.056-26.267c4.007,6.788,3.119,12.041,0.05,19.587c-2.904,7.144-7.333,13.621-17.897,13.322
	C392.276,288.298,404.221,293.12,416.36,298.373z"/>
<path fill-rule="evenodd" clip-rule="evenodd" fill="none" stroke="#FFFFFF" stroke-width="4.252" stroke-miterlimit="22.9256" d="
	M525.704,424.775c-46.074-36.819-119.792-83.519-231.912-137.106"/>
<path fill-rule="evenodd" clip-rule="evenodd" fill="none" stroke="#FFFFFF" stroke-width="4.252" stroke-miterlimit="22.9256" d="
	M482.361,330.366c-28.575-51.775-74.159-96.198-151.378-166.049"/>
<text transform="matrix(1 0 0 1 41.4736 737.6553)"><tspan x="0" y="0" fill="#2492FF" font-family="'MicraDi'" font-size="134">WG</tspan><tspan x="298.083" y="0" fill="#2B2A29" font-family="'MicraDi'" font-size="134">Lab</tspan></text>
</svg>
