<?xml version="1.0" encoding="utf-8"?>
<!-- Generator: Adobe Illustrator 16.0.0, SVG Export Plug-In . SVG Version: 6.00 Build 0)  -->
<!DOCTYPE svg PUBLIC "-//W3C//DTD SVG 1.1//EN" "http://www.w3.org/Graphics/SVG/1.1/DTD/svg11.dtd">
<svg version="1.1" id="Layer_1" xmlns="http://www.w3.org/2000/svg" xmlns:xlink="http://www.w3.org/1999/xlink" x="0px" y="0px"
	 width="662.937px" height="772.824px" viewBox="0 0 662.937 772.824" enable-background="new 0 0 662.937 772.824"
	 xml:space="preserve">
<rect x="-993.366" y="-1510.11" fill-rule="evenodd" clip-rule="evenodd" fill="#FFFFFF" stroke="#99CCCC" stroke-width="0.5669" stroke-miterlimit="22.9256" width="2194.689" height="1027.2"/>
<path fill-rule="evenodd" clip-rule="evenodd" fill="#336666" d="M-23.173-689.497h0.007c0.071-0.002,0.142-0.003,0.213-0.003
	c2.966,0,5.513,1.799,6.606,4.365l0,0l18.511,36.312l18.281-35.879v0.001c0.982-2.795,3.644-4.799,6.774-4.799
	c3.965,0,7.179,3.214,7.179,7.179c0,1.039-0.221,2.026-0.618,2.918l0,0l-0.002,0.005c-0.101,0.225-0.213,0.444-0.335,0.657
	l-24.66,48.423c-1.082,2.594-3.643,4.416-6.628,4.416c-2.477,0-4.66-1.254-5.951-3.161v-0.001c-0.325-0.48-0.594-1.004-0.796-1.559
	l-18.457-36.137l-18.561,36.444c-1.082,2.594-3.642,4.417-6.628,4.417c-2.477,0-4.66-1.254-5.95-3.162h-0.001
	c-0.325-0.481-0.594-1.004-0.795-1.559l-24.525-48.017c-0.164-0.275-0.312-0.562-0.438-0.859l-0.002-0.004l0,0
	c-0.37-0.865-0.575-1.818-0.575-2.819c0-3.965,3.215-7.179,7.179-7.179c2.967,0,5.513,1.8,6.606,4.366h0.001l18.511,36.312
	l18.28-35.879h0.001C-28.965-687.493-26.303-689.497-23.173-689.497L-23.173-689.497z M203.854-689.497
	c3.965,0,7.179,3.214,7.179,7.179v21.322c0.727-3.195,3.585-5.58,7-5.58h34.318c9.391,0,15.922,3.773,17.156,12.76
	c0.043,0.263,0.074,0.523,0.094,0.78l0.004,0.05c0.307,3.128,0.16,6.499,0.192,9.652c0,17.811-17.983,17.392-31.739,17.285
	c-9.129-0.069-4.569-0.052-8.879-0.052c-21.823,0-30.623,0.512-32.274-13.89l-0.229,0.004v-2.9
	c-0.057-1.178-0.077-2.439-0.064-3.791l0.064-6.992v-28.648C196.675-686.283,199.889-689.497,203.854-689.497L203.854-689.497z
	 M211.032-657.799v6.126v11.428h44.407v-6.298v-5.676h-37.407C214.617-652.219,211.759-654.604,211.032-657.799L211.032-657.799z
	 M45.258-689.497c3.965,0,7.179,3.214,7.179,7.179v42.073c10.896-0.003,56.879-5.399,56.879,7.168c0,3.965-3.214,7.179-7.179,7.179
	c-18.959-0.145-37.919-0.121-56.879-0.121c-0.214,0-0.426-0.01-0.635-0.027c-3.709-0.346-6.544-3.418-6.544-7.151v-49.12
	C38.079-686.283,41.293-689.497,45.258-689.497L45.258-689.497z M129.171-652.219h32.064c3.965,0,7.18-3.214,7.18-7.179
	s-3.215-7.179-7.18-7.179H132.26c-9.391,0-15.922,3.773-17.157,12.76c-0.042,0.263-0.073,0.523-0.093,0.78l-0.004,0.05
	c-0.308,3.128-0.16,6.499-0.192,9.652c0,17.811,17.982,17.392,31.739,17.285c9.128-0.069,4.569-0.052,8.879-0.052
	c27.229,0,33.422,0.798,32.504-27.569v-23.056c0-9.405-8.711-12.771-16.778-12.771h-19.078c-3.965,0-7.179,3.214-7.179,7.179
	s3.214,7.179,7.179,7.179h21.498v34.895h-44.406v-6.298V-652.219z"/>
<path fill-rule="evenodd" clip-rule="evenodd" fill="#669999" stroke="#FFFFFF" stroke-width="2.8346" stroke-miterlimit="22.9256" d="
	M-125.804-899.222c8.76,13.212,14.747,20.838,26.147,33.123l33.776-15.893c2.952-66.689,30.317-160.671,71.927-218.653
	c61.081-85.115,162.777-109.506,252.739-45.051c-41.025-43.063-80.017-65.61-116.408-75.344
	c-143.029-38.255-245.122,146.26-265.332,295.003C-124.807-912.397-125.358-912.061-125.804-899.222z"/>
<path fill-rule="evenodd" clip-rule="evenodd" fill="#99CCCC" stroke="#FFFFFF" stroke-width="2.8346" stroke-miterlimit="22.9256" d="
	M5.096-888.547l26.916-5.53l22.956-24.718c-26.555-167.936-58.276-542.159,210.369-261.883
	c-72.369-128-175.424-169.498-219.99-140.168C-40.697-1264.219-31.325-990.981,5.096-888.547z"/>
<path fill-rule="evenodd" clip-rule="evenodd" fill="#4E9C9C" d="M-9.123-944.307c-2.048,12.889-10.683,16.725-20.024,18.754
	c-10.978,2.383-25.992,1.571-28.917-10.25c-4.028,20.017-6.483,34.998-7.735,52.094c6.961-16.164,23.776-25.404,34.215-26.624
	c8.184-0.956,23.88-1.534,32.488,8.802C-2.821-914.116-6.193-928.531-9.123-944.307L-9.123-944.307z M83.635-1224.52
	c22.239-12.387,24.245-45.06,7.242-47.768c11.861-6.512,26.273-8.191,43.654-3.83c-9.685,1.666-16.112,11.287-18.257,17.819
	c-2.041,6.214-3.151,11.446-3.438,16.038c-0.543,8.712,3.202,13.922,8.615,17.168C108.46-1226.662,95.842-1226.408,83.635-1224.52
	L83.635-1224.52z M144.265-1220.522c11.054-1.347,18.209-9.657,22.143-18.691c3.688-8.47,4.845-17.183-0.698-24.114
	c8.069,4.409,16.639,9.87,25.703,16.387c-2.977-0.313-5.926,0.387-8.706,2.214c-4.995,3.285-6.972,7.732-8.608,16.249
	c-1.805,9.387,2.227,17.084,8.452,23.233C169.501-1212.055,156.731-1217.044,144.265-1220.522L144.265-1220.522z M-17.671-1006.643
	c-0.609,4.17-1.553,7.442-2.784,9.462c-3.739,6.13-15.632,7.169-18.562,3.801c-1.568-1.801-1.738-5.351-1.069-10.368
	c-3.872,11.721-7.373,23.63-10.47,35.485c4.02-6.781,9.05-8.532,17.142-9.478c7.659-0.895,15.469-0.133,20.296,9.269
	C-14.9-980.684-16.427-993.475-17.671-1006.643z"/>
<rect x="-3218.669" y="-1510.11" fill-rule="evenodd" clip-rule="evenodd" fill="#FFFFFF" stroke="#99CCCC" stroke-width="0.5669" stroke-miterlimit="22.9256" width="2194.689" height="1027.2"/>
<path fill-rule="evenodd" clip-rule="evenodd" fill="#99CCCC" d="M-2234.792-686.416h0.006c0.063-0.002,0.127-0.003,0.192-0.003
	c2.679,0,4.978,1.625,5.966,3.942l0,0l16.717,32.794l16.51-32.403v0.001c0.887-2.524,3.291-4.334,6.118-4.334
	c3.581,0,6.483,2.903,6.483,6.483c0,0.938-0.2,1.83-0.558,2.635v0.001l-0.002,0.004c-0.091,0.204-0.192,0.401-0.302,0.593
	l-22.271,43.731c-0.978,2.343-3.289,3.989-5.986,3.989c-2.237,0-4.209-1.133-5.374-2.855l0-0.001
	c-0.294-0.435-0.536-0.906-0.719-1.407l-16.668-32.636l-16.762,32.913c-0.977,2.343-3.289,3.988-5.986,3.988
	c-2.236,0-4.208-1.132-5.374-2.854l0-0.001c-0.294-0.434-0.536-0.906-0.719-1.407l-22.148-43.364
	c-0.148-0.248-0.281-0.508-0.396-0.776l-0.002-0.003h0c-0.334-0.781-0.52-1.643-0.52-2.546c0-3.581,2.903-6.483,6.483-6.483
	c2.679,0,4.979,1.625,5.967,3.942l0,0l16.717,32.794l16.509-32.402h0C-2240.024-684.606-2237.62-686.416-2234.792-686.416
	L-2234.792-686.416z M-2029.764-686.416c3.58,0,6.483,2.902,6.483,6.483v19.255c0.657-2.885,3.237-5.039,6.322-5.039h30.993
	c8.48,0,14.379,3.408,15.494,11.523c0.038,0.238,0.066,0.474,0.084,0.705l0.003,0.046c0.278,2.824,0.145,5.868,0.174,8.716
	c0,16.086-16.241,15.707-28.665,15.611c-8.244-0.063-4.126-0.047-8.019-0.047c-19.708,0-27.655,0.462-29.147-12.544l-0.207,0.003
	v-2.619c-0.051-1.063-0.07-2.203-0.059-3.423l0.059-6.315v-25.872C-2036.247-683.514-2033.345-686.416-2029.764-686.416
	L-2029.764-686.416z M-2023.281-657.789v5.532v10.32h40.104v-5.688v-5.126h-33.783
	C-2020.043-652.75-2022.624-654.903-2023.281-657.789L-2023.281-657.789z M-2172.993-686.416c3.581,0,6.483,2.902,6.483,6.483
	v37.996c9.839-0.002,51.368-4.877,51.368,6.474c0,3.58-2.902,6.482-6.483,6.482c-17.123-0.13-34.246-0.108-51.368-0.108
	c-0.193,0-0.384-0.009-0.573-0.025c-3.349-0.312-5.91-3.086-5.91-6.458v-44.36C-2179.477-683.514-2176.574-686.416-2172.993-686.416
	L-2172.993-686.416z M-2097.211-652.75h28.958c3.581,0,6.483-2.902,6.483-6.482c0-3.581-2.902-6.484-6.483-6.484h-26.168
	c-8.48,0-14.379,3.408-15.494,11.523c-0.038,0.238-0.066,0.474-0.084,0.705l-0.004,0.046c-0.277,2.824-0.144,5.868-0.174,8.716
	c0,16.086,16.241,15.707,28.665,15.611c8.244-0.063,4.126-0.047,8.019-0.047c24.591,0,30.183,0.721,29.354-24.898v-20.821
	c0-8.493-7.866-11.534-15.152-11.534h-17.229c-3.581,0-6.483,2.902-6.483,6.483s2.903,6.483,6.483,6.483h19.415v31.513h-40.104
	v-5.688V-652.75z"/>
<path fill-rule="evenodd" clip-rule="evenodd" fill="#669999" stroke="#FFFFFF" stroke-width="2.8346" stroke-miterlimit="22.9256" d="
	M-2351.106-899.222c8.759,13.212,14.747,20.838,26.147,33.123l33.058-4.502c2.953-66.689,31.035-172.062,72.645-230.044
	c61.081-85.115,162.777-109.506,252.739-45.051c-41.025-43.063-80.017-65.61-116.408-75.344
	c-143.029-38.255-245.121,146.26-265.332,295.003C-2350.11-912.397-2350.662-912.061-2351.106-899.222z"/>
<path fill-rule="evenodd" clip-rule="evenodd" fill="#99CCCC" stroke="#FFFFFF" stroke-width="2.8346" stroke-miterlimit="22.9256" d="
	M-2220.208-888.547l53.772-11.048c-26.554-167.937-62.177-561.359,206.469-281.083c-72.37-128-175.424-169.498-219.99-140.168
	C-2266-1264.219-2256.629-990.981-2220.208-888.547z"/>
<path fill-rule="evenodd" clip-rule="evenodd" fill="#56802C" stroke="#FFFFFF" stroke-width="2.8346" stroke-miterlimit="22.9256" d="
	M-1956.382-807.55l6.946-29.493l-23.328-30.122c-59.23,30.788-164.527,59.154-235.546,52.11
	c-104.253-10.34-176.224-86.217-165.385-196.354c-16.781,57.061-16.812,102.102-7.045,138.484
	C-2338.835-716.817-2091.4-735.71-1956.382-807.55z"/>
<path fill-rule="evenodd" clip-rule="evenodd" fill="#669933" stroke="#FFFFFF" stroke-width="2.8346" stroke-miterlimit="22.9256" d="
	M-2024.152-920.279l-36.454-41.045c-132.16,106.965-455.063,334.526-346.659-38.266c-74.667,126.674-59.078,236.67-11.394,260.601
	C-2326.597-692.787-2094.652-837.521-2024.152-920.279z"/>
<path fill-rule="evenodd" clip-rule="evenodd" fill="#DC5800" stroke="#FFFFFF" stroke-width="2.8346" stroke-miterlimit="22.9256" d="
	M-2081.468-1186.102l-29.015,8.73l-14.422,35.264c56.278,35.902,133.493,112.908,162.902,177.934
	c43.171,95.456,13.446,195.723-87.354,241.404c57.806-13.997,96.828-36.491,123.454-63.141
	C-1811.664-900.254-1951.743-1105.092-2081.468-1186.102z"/>
<path fill-rule="evenodd" clip-rule="evenodd" fill="#EA6100" stroke="#FFFFFF" stroke-width="2.8346" stroke-miterlimit="22.9256" d="
	M-2145.209-1071.046l-17.318,52.093c158.714,60.971,517.239,226.832,140.19,319.348c147.036,1.326,234.502-67.172,231.384-120.433
	C-1796.972-922.867-2038.288-1051.37-2145.209-1071.046z"/>
<path fill-rule="evenodd" clip-rule="evenodd" fill="#4E9C9C" d="M-2234.427-944.307c-2.047,12.889-10.682,16.725-20.023,18.754
	c-10.978,2.383-25.993,1.571-28.918-10.25c-4.028,20.017-6.752,39.2-8.004,56.295c6.96-16.163,24.045-29.605,34.483-30.825
	c8.185-0.956,23.88-1.534,32.489,8.802C-2228.124-914.116-2231.497-928.531-2234.427-944.307L-2234.427-944.307z M-2141.669-1224.52
	c22.24-12.387,24.246-45.06,7.243-47.768c11.861-6.512,26.273-8.191,43.654-3.83c-9.684,1.666-16.112,11.287-18.257,17.819
	c-2.041,6.214-3.151,11.446-3.437,16.038c-0.543,8.712,3.202,13.922,8.615,17.168
	C-2116.843-1226.662-2129.461-1226.408-2141.669-1224.52L-2141.669-1224.52z M-2081.038-1220.522
	c11.053-1.347,18.208-9.657,22.142-18.691c3.688-8.47,4.845-17.183-0.698-24.114c8.069,4.409,16.638,9.87,25.703,16.387
	c-2.977-0.313-5.926,0.387-8.705,2.214c-4.996,3.285-6.972,7.732-8.609,16.249c-1.804,9.387,2.227,17.084,8.453,23.233
	C-2055.803-1212.055-2068.572-1217.044-2081.038-1220.522L-2081.038-1220.522z M-2242.974-1006.643
	c-0.61,4.17-1.553,7.442-2.785,9.462c-3.739,6.13-15.631,7.169-18.562,3.801c-1.567-1.801-1.738-5.351-1.068-10.368
	c-3.873,11.721-7.374,23.63-10.471,35.485c4.02-6.781,9.05-8.532,17.142-9.478c7.659-0.895,15.469-0.133,20.296,9.269
	C-2240.204-980.684-2241.73-993.475-2242.974-1006.643z"/>
<path fill-rule="evenodd" clip-rule="evenodd" fill="#799A37" d="M-2354.326-820.274c-21.854-13.125-51.208,1.482-45.052,17.572
	c-11.566-7.017-20.225-18.657-25.137-35.887c6.284,7.554,17.831,8.31,24.56,6.901c6.402-1.34,11.488-2.994,15.608-5.043
	c7.812-3.883,10.453-9.727,10.56-16.033C-2368.638-840.714-2362.082-829.913-2354.326-820.274L-2354.326-820.274z
	 M-2065.331-880.086c12.186-4.672,19.824,0.889,26.252,7.965c7.554,8.314,14.357,21.725,5.583,30.168
	c19.349-6.521,37.324-13.753,52.755-21.217c-17.479,2.055-37.662-6.021-43.937-14.45c-4.92-6.61-13.269-19.914-8.622-32.537
	C-2042.338-900.64-2053.135-890.511-2065.331-880.086L-2065.331-880.086z M-2115.043-841.517c3.916-1.557,7.222-2.376,9.587-2.318
	c7.177,0.173,14.024,9.952,12.573,14.174c-0.777,2.259-3.766,4.181-8.447,6.11c12.087-2.507,24.152-5.43,35.967-8.676
	c-7.882-0.09-11.914-3.571-16.778-10.105c-4.604-6.188-7.85-13.331-2.121-22.212
	C-2093.947-856.896-2104.26-849.178-2115.043-841.517L-2115.043-841.517z M-2381.236-874.816
	c-6.693-8.899-17.468-10.939-27.259-9.83c-9.179,1.041-17.303,4.396-20.535,12.662c-0.216-9.193,0.229-19.344,1.34-30.452
	c1.217,2.734,3.298,4.938,6.271,6.432c5.343,2.684,10.182,2.171,18.376-0.669c9.032-3.131,13.682-10.471,15.895-18.937
	C-2386.521-900.904-2384.457-887.352-2381.236-874.816z"/>
<path fill-rule="evenodd" clip-rule="evenodd" fill="#FF6600" d="M-2089.811-1055.48c-10.139-8.217-9.143-17.613-6.229-26.717
	c3.424-10.699,11.635-23.297,23.334-19.919c-15.321-13.497-30.572-25.448-44.75-35.079c10.518,14.109,13.617,35.626,9.454,45.275
	c-3.264,7.566-10.611,21.448-23.867,23.736C-2119.107-1065.116-2104.937-1060.83-2089.811-1055.48L-2089.811-1055.48z
	 M-1893.515-835.11c-0.441,25.489,26.887,43.607,37.744,30.23c-0.293,13.526-6.045,26.844-18.51,39.713
	c3.399-9.22-1.719-19.597-6.304-24.72c-4.361-4.875-8.337-8.452-12.17-10.996c-7.269-4.823-13.651-4.189-19.165-1.129
	C-1904.06-812.496-1897.984-823.574-1893.515-835.11L-1893.515-835.11z M-1927.294-784.534
	c-9.246,9.058-19.951,17.621-32.373,25.517c8.438-2.316,17.119-1.959,24.346,4.297c6.557,5.677,9.42,9.611,9.767,15.58
	c0.193,3.321-0.676,6.226-2.435,8.646c10.176-4.592,19.189-9.283,27.042-14.065c-8.774,1.335-15.742-4.024-21.233-11.452
	C-1928.035-763.937-1931.656-774.289-1927.294-784.534L-1927.294-784.534z M-2031.554-1031.715c-3.305-2.612-5.667-5.065-6.8-7.143
	c-3.439-6.302,1.607-17.121,5.988-17.975c2.344-0.457,5.504,1.171,9.515,4.26c-8.215-9.215-16.778-18.201-25.497-26.812
	c3.863,6.872,2.865,12.104-0.363,19.584c-3.055,7.081-7.62,13.464-18.176,12.942
	C-2055.42-1042.295-2043.579-1037.222-2031.554-1031.715z"/>
<path fill-rule="evenodd" clip-rule="evenodd" fill="#93C0C8" d="M-20.338-688.08l0.007,0.001c0.07-0.003,0.142-0.004,0.213-0.004
	c2.966,0,5.512,1.8,6.606,4.366v-0.001l18.511,36.312l18.281-35.879v0.001c0.981-2.795,3.644-4.799,6.774-4.799
	c3.965,0,7.179,3.214,7.179,7.179c0,1.039-0.222,2.026-0.618,2.918l0,0l-0.003,0.006c-0.1,0.225-0.212,0.444-0.334,0.656
	l-24.661,48.423c-1.082,2.594-3.642,4.417-6.628,4.417c-2.477,0-4.66-1.254-5.95-3.162l0,0c-0.325-0.481-0.594-1.004-0.796-1.559
	l-18.457-36.137l-18.561,36.443c-1.082,2.594-3.643,4.418-6.628,4.418c-2.477,0-4.66-1.255-5.95-3.162l-0.001-0.001
	c-0.325-0.48-0.594-1.004-0.796-1.559l-24.524-48.017c-0.165-0.274-0.312-0.562-0.438-0.859l-0.002-0.003v-0.001
	c-0.37-0.865-0.575-1.818-0.575-2.818c0-3.965,3.214-7.18,7.179-7.18c2.967,0,5.513,1.8,6.606,4.366l0,0l18.511,36.312
	l18.281-35.879l0,0C-26.13-686.076-23.468-688.08-20.338-688.08L-20.338-688.08z M206.688-688.08c3.965,0,7.179,3.215,7.179,7.18
	v21.321c0.727-3.195,3.585-5.58,7-5.58h34.318c9.39,0,15.921,3.773,17.157,12.76c0.041,0.264,0.072,0.524,0.093,0.78l0.003,0.051
	c0.308,3.127,0.16,6.498,0.193,9.651c0,17.812-17.983,17.392-31.74,17.286c-9.128-0.07-4.568-0.053-8.879-0.053
	c-21.822,0-30.622,0.512-32.273-13.89l-0.229,0.005v-2.9c-0.057-1.179-0.077-2.44-0.064-3.791l0.064-6.992V-680.9
	C199.51-684.865,202.724-688.08,206.688-688.08L206.688-688.08z M213.867-656.381v6.125v11.428h44.407v-6.297v-5.677h-37.407
	C217.452-650.802,214.594-653.186,213.867-656.381L213.867-656.381z M48.093-688.08c3.964,0,7.178,3.215,7.178,7.18v42.072
	c10.896-0.002,56.88-2.699,56.88,7.168c0,3.965-3.214,7.18-7.179,7.18c-18.959-0.146-37.92-0.121-56.879-0.121
	c-0.215,0-0.426-0.011-0.635-0.028c-3.709-0.346-6.545-3.417-6.545-7.151V-680.9C40.913-684.865,44.128-688.08,48.093-688.08
	L48.093-688.08z M132.005-650.802h32.065c3.965,0,7.179-3.214,7.179-7.179s-3.214-7.179-7.179-7.179h-28.977
	c-9.39,0-15.921,3.773-17.156,12.76c-0.042,0.264-0.073,0.524-0.094,0.78l-0.003,0.051c-0.308,3.127-0.16,6.498-0.193,9.651
	c0,17.812,17.983,17.392,31.74,17.286c9.128-0.07,4.568-0.053,8.879-0.053c27.229,0,33.422,0.798,32.503-27.568v-23.056
	c0-9.405-8.71-12.772-16.778-12.772h-19.077c-3.965,0-7.179,3.215-7.179,7.18c0,3.964,3.214,7.178,7.179,7.178h21.498v34.895
	h-44.407v-6.297V-650.802z"/>
<path fill-rule="evenodd" clip-rule="evenodd" fill="none" stroke="#FFFFFF" stroke-width="4.252" stroke-miterlimit="22.9256" d="
	M39.623-1158.491c-9.545,58.069-14.485,143.761-7.642,264.42"/>
<path fill-rule="evenodd" clip-rule="evenodd" fill="none" stroke="#FFFFFF" stroke-width="4.252" stroke-miterlimit="22.9256" d="
	M-21.421-1079.894c-31.612,49.979-48.588,111.323-72.613,212.639"/>
<path fill-rule="evenodd" clip-rule="evenodd" fill="#56802C" stroke="#FFFFFF" stroke-width="2.8346" stroke-miterlimit="22.9256" d="
	M261.332-812.713c6.233-14.575,9.319-23.767,13.329-40.039l-31.827-19.506c-57.36,34.146-150.936,62.873-222.241,59.928
	c-104.676-4.321-180.895-75.93-176.414-186.508c-13.468,57.933-10.906,102.9,0.938,138.661
	c46.552,140.548,256.821,124.575,392.238,59.804C249.772-806.313,250.357-806.036,261.332-812.713z"/>
<path fill-rule="evenodd" clip-rule="evenodd" fill="#669933" stroke="#FFFFFF" stroke-width="2.8346" stroke-miterlimit="22.9256" d="
	M198.388-927.98l-19.399-19.46l-33.263-5.617c-125.784,114.396-421.146,346.364-334.381-32.05
	c-67.252,130.763-45.357,239.68,3.625,260.825C-90.461-683.455,132.768-841.301,198.388-927.98z"/>
<path fill-rule="evenodd" clip-rule="evenodd" fill="#799A37" d="M159.59-885.483c11.896-5.364,19.843-0.253,26.667,6.44
	c8.021,7.867,15.585,20.862,7.311,29.797c18.941-7.623,32.811-13.797,47.786-22.136c-17.331,3.057-34.286-5.925-41.036-13.979
	c-5.292-6.315-14.394-19.117-10.48-31.987C181.362-907.326,171.166-896.593,159.59-885.483L159.59-885.483z M-125.541-809.168
	c-22.563-11.787-50.973,4.474-43.9,20.172c-11.955-6.339-21.271-17.462-27.168-34.384c6.709,7.179,18.279,7.271,24.917,5.477
	c6.313-1.706,11.296-3.65,15.291-5.933c7.58-4.329,9.879-10.32,9.62-16.626C-140.961-828.741-133.821-818.334-125.541-809.168
	L-125.541-809.168z M-155.487-862.038c-7.193-8.499-18.069-9.917-27.779-8.245c-9.104,1.567-17.021,5.385-19.771,13.823
	c-0.744-9.165-0.886-19.325-0.415-30.479c1.373,2.659,3.576,4.741,6.63,6.061c5.488,2.372,10.291,1.582,18.308-1.726
	c8.836-3.646,13.057-11.24,14.777-19.819C-162.265-887.779-159.425-874.367-155.487-862.038L-155.487-862.038z M112.182-844.115
	c10.323-8.27,20.175-16.567,29.404-24.762c-5.208,9.196-1.557,16.142,3.396,22.053c5.232,6.244,9.458,9.487,17.333,9.124
	c-11.609,3.92-23.485,7.532-35.407,10.73c4.561-2.195,7.434-4.286,8.079-6.586c1.206-4.298-6.192-13.667-13.367-13.427
	C119.254-846.903,116.001-845.895,112.182-844.115z"/>
<path fill-rule="evenodd" clip-rule="evenodd" fill="none" stroke="#FFFFFF" stroke-width="4.252" stroke-miterlimit="22.9256" d="
	M-44.065-809.583C9.537-833.668,83.19-876.397,179.009-947.419"/>
<path fill-rule="evenodd" clip-rule="evenodd" fill="none" stroke="#FFFFFF" stroke-width="4.252" stroke-miterlimit="22.9256" d="
	M53.017-800.765c59.129-1.019,119.721-20.509,217.591-56.052"/>
<path fill-rule="evenodd" clip-rule="evenodd" fill="#DC5800" stroke="#FFFFFF" stroke-width="2.8346" stroke-miterlimit="22.9256" d="
	M141.936-1179.366c-15.797,1.313-25.364,2.888-41.622,6.962l-2.339,37.255c57.022,34.707,126.207,103.953,156.98,168.345
	c45.175,94.523,17.57,195.395-82.244,243.191c57.498-15.213,96.037-38.524,122.095-65.729
	c102.412-106.923-10.121-285.261-130.742-374.611C153.003-1172.147,152.973-1172.793,141.936-1179.366z"/>
<path fill-rule="evenodd" clip-rule="evenodd" fill="#EA6100" stroke="#FFFFFF" stroke-width="2.8346" stroke-miterlimit="22.9256" d="
	M69.536-1069.791l-8.117,26.252l10.605,32.023c159.965,57.611,503.203,210.047,128.188,310.492
	c147.032-1.774,233.033-72.103,228.793-125.285C420.82-928.988,176.849-1052.374,69.536-1069.791z"/>
<path fill-rule="evenodd" clip-rule="evenodd" fill="#FF6600" d="M125.25-1055.396c-10.309-8.002-9.511-17.416-6.79-26.58
	c3.197-10.77,11.142-23.537,22.91-20.406c-15.603-13.171-27.55-22.538-41.93-31.869c10.813,13.885,10.813,33.072,6.854,42.808
	c-3.104,7.633-10.156,21.667-23.361,24.233C95.758-1064.414,110.015-1060.427,125.25-1055.396L125.25-1055.396z M326.148-839.147
	c0.144,25.456,27.812,42.95,38.374,29.354c-0.006,13.531-5.476,26.97-17.669,40.102c3.204-9.289-2.132-19.557-6.823-24.582
	c-4.463-4.781-8.514-8.274-12.399-10.736c-7.373-4.672-13.744-3.899-19.195-0.719C316.069-816.359,321.924-827.539,326.148-839.147
	L326.148-839.147z M293.443-787.938c-9.052,9.25-19.575,18.038-31.827,26.193c8.387-2.494,17.074-2.319,24.432,3.783
	c6.675,5.536,9.621,9.41,10.094,15.37c0.264,3.316-0.545,6.237-2.253,8.695c10.078-4.805,18.99-9.685,26.741-14.633
	c-8.744,1.521-15.824-3.69-21.47-11.001C293.138-767.328,289.3-777.602,293.443-787.938L293.443-787.938z M183.997-1032.864
	c-3.36-2.543-5.774-4.945-6.951-6.998c-3.571-6.229,1.246-17.151,5.608-18.097c2.334-0.507,5.526,1.054,9.602,4.057
	c-8.407-9.039-17.157-17.844-26.056-26.267c4.007,6.788,3.119,12.041,0.05,19.587c-2.904,7.144-7.333,13.621-17.897,13.322
	C159.913-1042.939,171.857-1038.117,183.997-1032.864z"/>
<path fill-rule="evenodd" clip-rule="evenodd" fill="none" stroke="#FFFFFF" stroke-width="4.252" stroke-miterlimit="22.9256" d="
	M293.341-906.462c-46.074-36.819-119.792-83.519-231.912-137.106"/>
<path fill-rule="evenodd" clip-rule="evenodd" fill="none" stroke="#FFFFFF" stroke-width="4.252" stroke-miterlimit="22.9256" d="
	M249.998-1000.871c-28.575-51.775-74.159-96.198-151.378-166.049"/>
<path fill-rule="evenodd" clip-rule="evenodd" fill="#669999" stroke="#FFFFFF" stroke-width="2.8346" stroke-miterlimit="22.9256" d="
	M-1152.804,451.778c8.76,13.212,14.747,20.838,26.147,33.123l33.776-15.893c2.952-66.689,30.317-160.671,71.927-218.653
	c61.081-85.115,162.777-109.506,252.739-45.051c-41.025-43.063-80.017-65.61-116.408-75.344
	c-143.029-38.255-245.122,146.26-265.332,295.003C-1151.807,438.603-1152.358,438.939-1152.804,451.778z"/>
<path fill-rule="evenodd" clip-rule="evenodd" fill="#99CCCC" stroke="#FFFFFF" stroke-width="2.8346" stroke-miterlimit="22.9256" d="
	M-1021.904,462.453l26.916-5.53l22.956-24.718c-26.555-167.936-58.276-542.159,210.369-261.883
	c-72.369-128-175.424-169.498-219.99-140.168C-1067.697,86.781-1058.325,360.019-1021.904,462.453z"/>
<path fill-rule="evenodd" clip-rule="evenodd" fill="#4E9C9C" d="M-1036.123,406.693c-2.048,12.889-10.683,16.725-20.024,18.754
	c-10.978,2.383-25.992,1.571-28.917-10.25c-4.028,20.017-6.483,34.998-7.735,52.094c6.961-16.164,23.776-25.404,34.215-26.624
	c8.184-0.956,23.88-1.534,32.488,8.802C-1029.821,436.884-1033.193,422.469-1036.123,406.693L-1036.123,406.693z M-943.365,126.48
	c22.239-12.387,24.245-45.06,7.242-47.768c11.861-6.512,26.273-8.191,43.654-3.83c-9.685,1.666-16.112,11.287-18.257,17.819
	c-2.041,6.214-3.151,11.446-3.438,16.038c-0.543,8.712,3.202,13.922,8.615,17.168C-918.54,124.338-931.158,124.592-943.365,126.48
	L-943.365,126.48z M-882.735,130.478c11.054-1.347,18.209-9.657,22.143-18.691c3.688-8.47,4.845-17.183-0.698-24.114
	c8.069,4.409,16.639,9.87,25.703,16.387c-2.977-0.313-5.926,0.387-8.706,2.214c-4.995,3.285-6.972,7.732-8.608,16.249
	c-1.805,9.387,2.227,17.084,8.452,23.233C-857.499,138.945-870.269,133.956-882.735,130.478L-882.735,130.478z M-1044.671,344.357
	c-0.609,4.17-1.553,7.442-2.784,9.462c-3.739,6.13-15.632,7.169-18.562,3.801c-1.568-1.801-1.738-5.351-1.069-10.368
	c-3.872,11.721-7.373,23.63-10.47,35.485c4.02-6.781,9.05-8.532,17.142-9.478c7.659-0.895,15.469-0.133,20.296,9.269
	C-1041.9,370.316-1043.427,357.525-1044.671,344.357z"/>
<path fill-rule="evenodd" clip-rule="evenodd" fill="none" stroke="#FFFFFF" stroke-width="4.252" stroke-miterlimit="22.9256" d="
	M-987.377,192.509c-9.545,58.069-14.485,143.761-7.642,264.42"/>
<path fill-rule="evenodd" clip-rule="evenodd" fill="none" stroke="#FFFFFF" stroke-width="4.252" stroke-miterlimit="22.9256" d="
	M-1048.421,271.106c-31.612,49.979-48.588,111.323-72.613,212.639"/>
<path fill-rule="evenodd" clip-rule="evenodd" fill="#56802C" stroke="#FFFFFF" stroke-width="2.8346" stroke-miterlimit="22.9256" d="
	M-765.668,538.287c6.233-14.575,9.319-23.767,13.329-40.039l-31.827-19.506c-57.36,34.146-150.936,62.873-222.241,59.928
	c-104.676-4.321-180.895-75.93-176.414-186.508c-13.468,57.933-10.906,102.9,0.938,138.661
	c46.552,140.548,256.821,124.575,392.238,59.804C-777.228,544.688-776.643,544.964-765.668,538.287z"/>
<path fill-rule="evenodd" clip-rule="evenodd" fill="#669933" stroke="#FFFFFF" stroke-width="2.8346" stroke-miterlimit="22.9256" d="
	M-828.612,423.02l-19.399-19.46l-33.263-5.617c-125.784,114.396-421.146,346.364-334.381-32.05
	c-67.252,130.763-45.357,239.68,3.625,260.825C-1117.461,667.545-894.232,509.699-828.612,423.02z"/>
<path fill-rule="evenodd" clip-rule="evenodd" fill="#799A37" d="M-867.41,465.517c11.896-5.364,19.843-0.253,26.667,6.44
	c8.021,7.867,15.585,20.862,7.311,29.797c18.941-7.623,32.811-13.797,47.786-22.136c-17.331,3.057-34.286-5.925-41.036-13.979
	c-5.292-6.315-14.394-19.117-10.48-31.987C-845.638,443.674-855.834,454.407-867.41,465.517L-867.41,465.517z M-1152.541,541.832
	c-22.563-11.787-50.973,4.474-43.9,20.172c-11.955-6.339-21.271-17.462-27.168-34.384c6.709,7.179,18.279,7.271,24.917,5.477
	c6.313-1.706,11.296-3.65,15.291-5.933c7.58-4.329,9.879-10.32,9.62-16.626C-1167.961,522.259-1160.821,532.666-1152.541,541.832
	L-1152.541,541.832z M-1182.487,488.962c-7.193-8.499-18.069-9.917-27.779-8.245c-9.104,1.567-17.021,5.385-19.771,13.823
	c-0.744-9.165-0.886-19.325-0.415-30.479c1.373,2.659,3.576,4.741,6.63,6.061c5.488,2.372,10.291,1.582,18.308-1.726
	c8.836-3.646,13.057-11.24,14.777-19.819C-1189.265,463.221-1186.425,476.633-1182.487,488.962L-1182.487,488.962z
	 M-914.818,506.885c10.323-8.27,20.175-16.567,29.404-24.762c-5.208,9.196-1.557,16.142,3.396,22.053
	c5.232,6.244,9.458,9.487,17.333,9.124c-11.609,3.92-23.485,7.532-35.407,10.73c4.561-2.195,7.434-4.286,8.079-6.586
	c1.206-4.298-6.192-13.667-13.367-13.427C-907.746,504.097-910.999,505.105-914.818,506.885z"/>
<path fill-rule="evenodd" clip-rule="evenodd" fill="none" stroke="#FFFFFF" stroke-width="4.252" stroke-miterlimit="22.9256" d="
	M-1071.065,541.417c53.603-24.085,127.256-66.814,223.074-137.836"/>
<path fill-rule="evenodd" clip-rule="evenodd" fill="none" stroke="#FFFFFF" stroke-width="4.252" stroke-miterlimit="22.9256" d="
	M-973.983,550.235c59.129-1.019,119.721-20.509,217.591-56.052"/>
<path fill-rule="evenodd" clip-rule="evenodd" fill="#DC5800" stroke="#FFFFFF" stroke-width="2.8346" stroke-miterlimit="22.9256" d="
	M-885.064,171.634c-15.797,1.313-25.364,2.888-41.622,6.962l-2.339,37.255c57.022,34.707,126.207,103.953,156.98,168.345
	c45.175,94.523,17.57,195.395-82.244,243.191c57.498-15.213,96.037-38.524,122.095-65.729
	c102.412-106.923-10.121-285.261-130.742-374.611C-873.997,178.853-874.027,178.207-885.064,171.634z"/>
<path fill-rule="evenodd" clip-rule="evenodd" fill="#EA6100" stroke="#FFFFFF" stroke-width="2.8346" stroke-miterlimit="22.9256" d="
	M-957.464,281.209l-8.117,26.252l10.605,32.023c159.965,57.611,503.203,210.047,128.188,310.492
	c147.032-1.774,233.033-72.103,228.793-125.285C-606.18,422.012-850.151,298.626-957.464,281.209z"/>
<path fill-rule="evenodd" clip-rule="evenodd" fill="#FF6600" d="M-901.75,295.604c-10.309-8.002-9.511-17.416-6.79-26.58
	c3.197-10.77,11.142-23.537,22.91-20.406c-15.603-13.171-27.55-22.538-41.93-31.869c10.813,13.885,10.813,33.072,6.854,42.808
	c-3.104,7.633-10.156,21.667-23.361,24.233C-931.242,286.586-916.985,290.573-901.75,295.604L-901.75,295.604z M-700.852,511.853
	c0.144,25.456,27.812,42.95,38.374,29.354c-0.006,13.531-5.476,26.97-17.669,40.102c3.204-9.289-2.132-19.557-6.823-24.582
	c-4.463-4.781-8.514-8.274-12.399-10.736c-7.373-4.672-13.744-3.899-19.195-0.719C-710.931,534.641-705.076,523.461-700.852,511.853
	L-700.852,511.853z M-733.557,563.063c-9.052,9.25-19.575,18.038-31.827,26.193c8.387-2.494,17.074-2.319,24.432,3.783
	c6.675,5.536,9.621,9.41,10.094,15.37c0.264,3.316-0.545,6.237-2.253,8.695c10.078-4.805,18.99-9.685,26.741-14.633
	c-8.744,1.521-15.824-3.69-21.47-11.001C-733.862,583.672-737.7,573.398-733.557,563.063L-733.557,563.063z M-843.003,318.136
	c-3.36-2.543-5.774-4.945-6.951-6.998c-3.571-6.229,1.246-17.151,5.608-18.097c2.334-0.507,5.526,1.054,9.602,4.057
	c-8.407-9.039-17.157-17.844-26.056-26.267c4.007,6.788,3.119,12.041,0.05,19.587c-2.904,7.144-7.333,13.621-17.897,13.322
	C-867.087,308.061-855.143,312.883-843.003,318.136z"/>
<path fill-rule="evenodd" clip-rule="evenodd" fill="none" stroke="#FFFFFF" stroke-width="4.252" stroke-miterlimit="22.9256" d="
	M-733.659,444.538c-46.074-36.819-119.792-83.519-231.912-137.106"/>
<path fill-rule="evenodd" clip-rule="evenodd" fill="none" stroke="#FFFFFF" stroke-width="4.252" stroke-miterlimit="22.9256" d="
	M-777.002,350.129c-28.575-51.775-74.159-96.198-151.378-166.049"/>
<text transform="matrix(1 0 0 1 -1257.9463 773.1963)"><tspan x="0" y="0" fill="#2492FF" font-family="'MicraDi'" font-size="144.32">WG</tspan><tspan x="321.04" y="0" fill="#2B2A29" font-family="'MicraDi'" font-size="144.32">Lab</tspan></text>
<path fill-rule="evenodd" clip-rule="evenodd" fill="#669999" stroke="#FFFFFF" stroke-width="2.8346" stroke-miterlimit="22.9256" d="
	M106.56,432.017c8.76,13.212,14.747,20.838,26.147,33.123l33.776-15.893c2.952-66.689,30.317-160.671,71.927-218.653
	c61.081-85.115,162.777-109.506,252.739-45.051c-41.025-43.063-80.017-65.61-116.408-75.344
	c-143.029-38.255-245.122,146.26-265.332,295.003C107.557,418.841,107.005,419.178,106.56,432.017z"/>
<path fill-rule="evenodd" clip-rule="evenodd" fill="#99CCCC" stroke="#FFFFFF" stroke-width="2.8346" stroke-miterlimit="22.9256" d="
	M237.459,442.691l26.916-5.53l22.956-24.718C260.776,244.508,229.055-129.716,497.7,150.561
	c-72.369-128-175.424-169.498-219.99-140.168C191.666,67.02,201.038,340.257,237.459,442.691z"/>
<path fill-rule="evenodd" clip-rule="evenodd" fill="#4E9C9C" d="M223.24,386.932c-2.048,12.889-10.683,16.725-20.024,18.754
	c-10.978,2.383-25.992,1.571-28.917-10.25c-4.028,20.017-6.483,34.998-7.735,52.094c6.961-16.164,23.776-25.404,34.215-26.624
	c8.184-0.956,23.88-1.534,32.488,8.802C229.542,417.122,226.17,402.707,223.24,386.932L223.24,386.932z M315.998,106.719
	c22.239-12.387,24.245-45.06,7.242-47.768c11.861-6.512,26.273-8.191,43.654-3.83c-9.685,1.666-16.112,11.287-18.257,17.819
	c-2.041,6.214-3.151,11.446-3.438,16.038c-0.543,8.712,3.202,13.922,8.615,17.168C340.823,104.576,328.205,104.83,315.998,106.719
	L315.998,106.719z M376.628,110.716c11.054-1.347,18.209-9.657,22.143-18.691c3.688-8.47,4.845-17.183-0.698-24.114
	c8.069,4.409,16.639,9.87,25.703,16.387c-2.977-0.313-5.926,0.387-8.706,2.214c-4.995,3.285-6.972,7.732-8.608,16.249
	c-1.805,9.387,2.227,17.084,8.452,23.233C401.864,119.184,389.095,114.194,376.628,110.716L376.628,110.716z M214.692,324.596
	c-0.609,4.17-1.553,7.442-2.784,9.462c-3.739,6.13-15.632,7.169-18.562,3.801c-1.568-1.801-1.738-5.351-1.069-10.368
	c-3.872,11.721-7.373,23.63-10.47,35.485c4.02-6.781,9.05-8.532,17.142-9.478c7.659-0.895,15.469-0.133,20.296,9.269
	C217.463,350.555,215.937,337.764,214.692,324.596z"/>
<path fill-rule="evenodd" clip-rule="evenodd" fill="none" stroke="#FFFFFF" stroke-width="4.252" stroke-miterlimit="22.9256" d="
	M271.986,172.747c-9.545,58.069-14.485,143.761-7.642,264.42"/>
<path fill-rule="evenodd" clip-rule="evenodd" fill="none" stroke="#FFFFFF" stroke-width="4.252" stroke-miterlimit="22.9256" d="
	M210.942,251.345c-31.612,49.979-48.588,111.323-72.613,212.639"/>
<path fill-rule="evenodd" clip-rule="evenodd" fill="#56802C" stroke="#FFFFFF" stroke-width="2.8346" stroke-miterlimit="22.9256" d="
	M493.695,518.525c6.233-14.575,9.319-23.767,13.329-40.039l-31.827-19.506c-57.36,34.146-150.936,62.873-222.241,59.928
	C148.28,514.587,72.062,442.979,76.542,332.4c-13.468,57.933-10.906,102.9,0.938,138.661
	c46.552,140.548,256.821,124.575,392.238,59.804C482.136,524.926,482.721,525.202,493.695,518.525z"/>
<path fill-rule="evenodd" clip-rule="evenodd" fill="#669933" stroke="#FFFFFF" stroke-width="2.8346" stroke-miterlimit="22.9256" d="
	M430.751,403.258l-19.399-19.46l-33.263-5.617C252.305,492.576-43.058,724.545,43.708,346.131
	c-67.252,130.763-45.357,239.68,3.625,260.825C141.902,647.783,365.131,489.938,430.751,403.258z"/>
<path fill-rule="evenodd" clip-rule="evenodd" fill="#799A37" d="M391.953,445.755c11.896-5.364,19.843-0.253,26.667,6.44
	c8.021,7.867,15.585,20.862,7.311,29.797c18.941-7.623,32.811-13.797,47.786-22.136c-17.331,3.057-34.286-5.925-41.036-13.979
	c-5.292-6.315-14.394-19.117-10.48-31.987C413.726,423.912,403.529,434.646,391.953,445.755L391.953,445.755z M106.822,522.07
	c-22.563-11.787-50.973,4.474-43.9,20.172c-11.955-6.339-21.271-17.462-27.168-34.384c6.709,7.179,18.279,7.271,24.917,5.477
	c6.313-1.706,11.296-3.65,15.291-5.933c7.58-4.329,9.879-10.32,9.62-16.626C91.402,502.497,98.542,512.904,106.822,522.07
	L106.822,522.07z M76.876,469.2c-7.193-8.499-18.069-9.917-27.779-8.245c-9.104,1.567-17.021,5.385-19.771,13.823
	c-0.744-9.165-0.886-19.325-0.415-30.479c1.373,2.659,3.576,4.741,6.63,6.061c5.488,2.372,10.291,1.582,18.308-1.726
	c8.836-3.646,13.057-11.24,14.777-19.819C70.099,443.459,72.938,456.871,76.876,469.2L76.876,469.2z M344.545,487.123
	c10.323-8.27,20.175-16.567,29.404-24.762c-5.208,9.196-1.557,16.142,3.396,22.053c5.232,6.244,9.458,9.487,17.333,9.124
	c-11.609,3.92-23.485,7.532-35.407,10.73c4.561-2.195,7.434-4.286,8.079-6.586c1.206-4.298-6.192-13.667-13.367-13.427
	C351.617,484.335,348.364,485.344,344.545,487.123z"/>
<path fill-rule="evenodd" clip-rule="evenodd" fill="none" stroke="#FFFFFF" stroke-width="4.252" stroke-miterlimit="22.9256" d="
	M188.298,521.655c53.603-24.085,127.256-66.814,223.074-137.836"/>
<path fill-rule="evenodd" clip-rule="evenodd" fill="none" stroke="#FFFFFF" stroke-width="4.252" stroke-miterlimit="22.9256" d="
	M285.38,530.474c59.129-1.019,119.721-20.509,217.591-56.052"/>
<path fill-rule="evenodd" clip-rule="evenodd" fill="#DC5800" stroke="#FFFFFF" stroke-width="2.8346" stroke-miterlimit="22.9256" d="
	M374.299,151.872c-15.797,1.313-25.364,2.888-41.622,6.962l-2.339,37.255c57.022,34.707,126.207,103.953,156.98,168.345
	c45.175,94.523,17.57,195.395-82.244,243.191c57.498-15.213,96.037-38.524,122.095-65.729
	c102.412-106.923-10.121-285.261-130.742-374.611C385.366,159.091,385.336,158.445,374.299,151.872z"/>
<path fill-rule="evenodd" clip-rule="evenodd" fill="#EA6100" stroke="#FFFFFF" stroke-width="2.8346" stroke-miterlimit="22.9256" d="
	M301.899,261.447l-8.117,26.252l10.605,32.023c159.965,57.611,503.203,210.047,128.188,310.492
	c147.032-1.774,233.033-72.103,228.793-125.285C653.184,402.25,409.212,278.864,301.899,261.447z"/>
<path fill-rule="evenodd" clip-rule="evenodd" fill="#FF6600" d="M357.613,275.842c-10.309-8.002-9.511-17.416-6.79-26.58
	c3.197-10.77,11.142-23.537,22.91-20.406c-15.603-13.171-27.55-22.538-41.93-31.869c10.813,13.885,10.813,33.072,6.854,42.808
	c-3.104,7.633-10.156,21.667-23.361,24.233C328.121,266.824,342.378,270.812,357.613,275.842L357.613,275.842z M558.512,492.091
	c0.144,25.456,27.812,42.95,38.374,29.354c-0.006,13.531-5.476,26.97-17.669,40.102c3.204-9.289-2.132-19.557-6.823-24.582
	c-4.463-4.781-8.514-8.274-12.399-10.736c-7.373-4.672-13.744-3.899-19.195-0.719C548.433,514.879,554.287,503.699,558.512,492.091
	L558.512,492.091z M525.807,543.301c-9.052,9.25-19.575,18.038-31.827,26.193c8.387-2.494,17.074-2.319,24.432,3.783
	c6.675,5.536,9.621,9.41,10.094,15.37c0.264,3.316-0.545,6.237-2.253,8.695c10.078-4.805,18.99-9.685,26.741-14.633
	c-8.744,1.521-15.824-3.69-21.47-11.001C525.501,563.91,521.663,553.637,525.807,543.301L525.807,543.301z M416.36,298.374
	c-3.36-2.543-5.774-4.945-6.951-6.998c-3.571-6.229,1.246-17.151,5.608-18.097c2.334-0.507,5.526,1.054,9.602,4.057
	c-8.407-9.039-17.157-17.844-26.056-26.267c4.007,6.788,3.119,12.041,0.05,19.587c-2.904,7.144-7.333,13.621-17.897,13.322
	C392.276,288.299,404.221,293.121,416.36,298.374z"/>
<path fill-rule="evenodd" clip-rule="evenodd" fill="none" stroke="#FFFFFF" stroke-width="4.252" stroke-miterlimit="22.9256" d="
	M525.704,424.776c-46.074-36.819-119.792-83.519-231.912-137.106"/>
<path fill-rule="evenodd" clip-rule="evenodd" fill="none" stroke="#FFFFFF" stroke-width="4.252" stroke-miterlimit="22.9256" d="
	M482.361,330.367c-28.575-51.775-74.159-96.198-151.378-166.049"/>
<text transform="matrix(1 0 0 1 1.417 753.4346)"><tspan x="0" y="0" fill="#2492FF" font-family="'MicraDi'" font-size="144.32">WG</tspan><tspan x="321.04" y="0" fill="#FFFFFF" font-family="'MicraDi'" font-size="144.32">Lab</tspan></text>
</svg>
